<svg width="8" height="8" viewBox="0 0 8 8" fill="none" xmlns="http://www.w3.org/2000/svg">
<path fill-rule="evenodd" clip-rule="evenodd" d="M3.99836 0C6.20719 0 7.99673 1.7919 7.99673 4.00072C7.99673 6.20721 6.20719 7.9991 3.99836 7.9991C1.78954 7.9991 0 6.20721 0 4.00072C0 1.7919 1.78954 0 3.99836 0ZM0.339628 4.00072C0.339628 6.01982 1.97927 7.65711 3.99836 7.65711C6.0198 7.65711 7.6571 6.01982 7.6571 4.00072C7.6571 1.97928 6.0198 0.341987 3.99836 0.341987C1.97927 0.341987 0.339628 1.97928 0.339628 4.00072ZM2.41494 6.0526V1.94649H4.23494C4.60191 1.94649 4.87985 1.98317 5.0688 2.05657C5.25931 2.13152 5.41236 2.26192 5.52792 2.44775C5.64035 2.63514 5.69656 2.84125 5.69656 3.06612C5.69812 3.35813 5.60444 3.60408 5.41549 3.80396C5.22654 4.00384 4.93451 4.13111 4.53943 4.18576C4.68466 4.25291 4.79475 4.32084 4.86971 4.38955C5.02743 4.53477 5.17735 4.7167 5.31945 4.93531L6.03385 6.0526H5.3499L4.80646 5.19766C4.64874 4.95249 4.51837 4.76431 4.41531 4.63314C4.31224 4.50197 4.2201 4.41063 4.1389 4.35909C4.0577 4.306 3.97495 4.26931 3.89063 4.24901C3.82972 4.23652 3.72899 4.23027 3.58845 4.23027H2.95835V6.0526H2.41494ZM2.95835 3.75946H4.1272C4.37393 3.75946 4.56756 3.73369 4.7081 3.68215C4.84864 3.63062 4.95482 3.54864 5.02666 3.43621C5.10005 3.32222 5.13674 3.19885 5.13674 3.06612C5.13674 2.87248 5.06646 2.71321 4.92592 2.58828C4.78538 2.46336 4.56208 2.4009 4.25602 2.4009H2.95835V3.75946Z" fill="#333333"/>
</svg>
