<svg width="39" height="36" viewBox="0 0 39 36" fill="none" xmlns="http://www.w3.org/2000/svg">
<path d="M2.40891 19.7636C4.90233 20.2876 7.12739 21.3441 8.73967 20.4081C9.35457 20.0509 14.7239 15.7297 15.5205 16.8201C15.8058 17.2131 14.6056 19.7678 16.2643 19.2142C17.678 18.7408 18.986 17.8576 19.827 16.5623C20.4799 15.5564 20.6003 14.1745 22.1661 14.0963C22.9797 14.0562 24.2391 14.9944 23.6411 15.9537C21.883 18.7746 23.584 18.8148 24.7356 16.8898C25.2998 15.9495 25.2639 13.642 25.5365 12.6911C26.0711 10.8401 27.4678 9.7307 28.7674 12.9764C29.0653 13.7244 29.2893 14.0245 29.7288 14.3414C30.5191 14.912 33.6253 11.7571 33.9043 11.5162C36.6851 9.12636 37.0739 11.1021 36.3301 13.0651C35.8863 14.2421 34.7939 15.1951 34.236 15.8079C33.8472 16.2326 34.5213 16.1925 34.7981 16.1904C41.393 16.1291 38.7559 18.0499 34.517 19.5417C32.8857 20.1165 36.2878 21.7689 35.7046 22.5359C35.3792 22.9649 32.5793 23.8672 29.9591 23.0135C28.1588 22.426 28.387 22.0351 26.8804 21.7604C24.8159 21.3822 21.3611 22.3246 26.3627 23.7319C29.9401 24.7377 30.1557 26.1387 28.3934 26.8022C26.2676 27.601 20.7039 27.5904 18.9627 26.1239C17.4392 24.8392 16.0108 24.0087 16.4291 25.7879C16.7524 27.1614 14.7767 27.6665 13.3314 27.0304C12.4502 26.6416 8.86433 23.0536 8.31494 22.3014C9.09677 22.9395 22.8064 23.0642 29.9 16.7651C20.4968 22.238 10.8992 22.2211 1.71793 21.023C1.46225 20.5686 1.26151 20.4376 2.40891 19.7636ZM26.967 9.60392V6.39627C26.9656 4.55649 26.8508 3.3457 26.6226 2.7639C26.4409 2.32015 26.069 1.9398 25.5069 1.62284C24.7462 1.19741 23.9397 0.985399 23.0874 0.986808H21.8196V0H37.2133V0.986808H35.937C35.0918 0.985399 34.2881 1.18825 33.526 1.59537C32.9555 1.87641 32.5751 2.30959 32.3659 2.88223C32.1673 3.45981 32.068 4.63115 32.068 6.39627V11.4486C31.7905 11.7036 31.5066 11.9515 31.2164 12.1924C31.0178 12.3551 30.5508 12.7313 30.1874 12.9531C30.1071 12.82 30.0521 12.6679 29.9803 12.4925C29.4689 11.2162 28.5286 9.55954 26.967 9.60392ZM32.068 24.6722V29.6295C32.068 31.451 32.1758 32.6554 32.4124 33.2365C32.5843 33.6803 32.9463 34.0606 33.4985 34.3776C34.279 34.8044 35.0918 35.0185 35.937 35.0199H37.2133V36.0004H21.8196V35.0199H23.0874C24.556 35.0199 25.6337 34.5868 26.3056 33.7162C26.7494 33.1541 26.967 31.7869 26.967 29.6295V28.4737C27.6939 28.368 28.3426 28.2159 28.854 28.0236C29.7647 27.6812 30.6248 27.041 30.7621 26.0077C30.8382 25.4245 30.6586 24.9068 30.3395 24.4694C30.9058 24.5919 31.4848 24.6596 32.068 24.6722ZM10.24 26.1746V29.6295C10.2414 31.4524 10.3562 32.6547 10.5844 33.2365C10.7633 33.6803 11.1373 34.0606 11.7064 34.3776C12.4692 34.8044 13.2659 35.0199 14.1174 35.0199H15.4233V36.0004H0V35.0199H1.26996C2.75334 35.0199 3.83452 34.5854 4.51352 33.7162C4.9298 33.1541 5.14744 31.7869 5.14744 29.6295V22.7134C5.80249 22.7712 6.45473 22.8198 7.10415 22.8592L7.2584 23.0705C7.54155 23.4593 7.92614 23.8545 8.25789 24.201C8.75658 24.7237 9.26512 25.235 9.78352 25.7351C9.91242 25.8598 10.0667 26.0098 10.24 26.1746ZM5.14744 19.1148V6.39627C5.14603 4.55649 5.03122 3.3457 4.80301 2.7639C4.62129 2.32015 4.25855 1.9398 3.71479 1.62284C2.93577 1.19741 2.12082 0.985399 1.26996 0.986808H0V0H15.4233V0.986808H14.1174C13.2659 0.986808 12.4692 1.18754 11.7064 1.59537C11.1549 1.87641 10.7746 2.30959 10.5654 2.88223C10.3484 3.45981 10.24 4.63115 10.24 6.39627V11.5479V16.6996V17.7266C9.86664 17.9886 9.49615 18.2541 9.12848 18.5232C8.79884 18.7641 8.42482 19.0662 8.08039 19.2797C8.00432 19.3233 7.92472 19.3593 7.84161 19.3874C7.26897 19.5755 6.44698 19.4191 5.87434 19.2902C5.63063 19.2353 5.38833 19.1768 5.14744 19.1148Z" fill="#333333"/>
</svg>
