<svg width="33" height="34" viewBox="0 0 33 34" fill="none" xmlns="http://www.w3.org/2000/svg">
<path d="M29.5222 18.0778C29.6486 18.2042 29.7488 18.3542 29.8172 18.5193C29.8856 18.6844 29.9208 18.8613 29.9208 19.04C29.9208 19.2187 29.8856 19.3956 29.8172 19.5607C29.7488 19.7258 29.6486 19.8758 29.5222 20.0022C29.3958 20.1286 29.2458 20.2288 29.0807 20.2972C28.9156 20.3656 28.7387 20.4008 28.56 20.4008C28.3813 20.4008 28.2044 20.3656 28.0393 20.2972C27.8742 20.2288 27.7242 20.1286 27.5978 20.0022L17.68 10.0827V32.64C17.68 33.0007 17.5367 33.3466 17.2817 33.6017C17.0266 33.8567 16.6807 34 16.32 34C15.9593 34 15.6134 33.8567 15.3583 33.6017C15.1033 33.3466 14.96 33.0007 14.96 32.64V10.0827L5.0422 20.0022C4.91584 20.1286 4.76583 20.2288 4.60074 20.2972C4.43564 20.3656 4.2587 20.4008 4.08 20.4008C3.9013 20.4008 3.72436 20.3656 3.55926 20.2972C3.39417 20.2288 3.24416 20.1286 3.1178 20.0022C2.99144 19.8758 2.89121 19.7258 2.82283 19.5607C2.75444 19.3956 2.71924 19.2187 2.71924 19.04C2.71924 18.8613 2.75444 18.6844 2.82283 18.5193C2.89121 18.3542 2.99144 18.2042 3.1178 18.0778L15.3578 5.8378C15.4841 5.71135 15.6341 5.61104 15.7992 5.5426C15.9643 5.47416 16.1413 5.43893 16.32 5.43893C16.4987 5.43893 16.6757 5.47416 16.8408 5.5426C17.0059 5.61104 17.1559 5.71135 17.2822 5.8378L29.5222 18.0778ZM31.28 0H1.36C0.999306 0 0.653385 0.143286 0.398335 0.398335C0.143286 0.653385 0 0.999306 0 1.36C0 1.72069 0.143286 2.06662 0.398335 2.32167C0.653385 2.57671 0.999306 2.72 1.36 2.72H31.28C31.6407 2.72 31.9866 2.57671 32.2417 2.32167C32.4967 2.06662 32.64 1.72069 32.64 1.36C32.64 0.999306 32.4967 0.653385 32.2417 0.398335C31.9866 0.143286 31.6407 0 31.28 0Z" fill="white"/>
</svg>
