<svg width="218" height="17" viewBox="0 0 218 17" fill="none" xmlns="http://www.w3.org/2000/svg">
<path fill-rule="evenodd" clip-rule="evenodd" d="M215.718 3.04044e-05L216.129 5.05349H215.718C215.298 3.79624 214.757 2.84667 214.096 2.20476C213.144 1.28595 211.919 0.826543 210.423 0.826543C208.381 0.826543 206.829 1.63277 205.768 3.24524C204.877 4.60877 204.432 6.23243 204.432 8.11621C204.432 9.64477 204.726 11.0384 205.315 12.297C205.908 13.5599 206.683 14.4836 207.639 15.0681C208.596 15.6583 209.578 15.9527 210.586 15.9513C211.179 15.9513 211.751 15.8765 212.302 15.7268C212.853 15.5758 213.384 15.3548 213.895 15.0639V10.43C213.895 9.62868 213.834 9.10285 213.714 8.85252C213.593 8.60639 213.403 8.41829 213.146 8.28823C212.89 8.15537 212.439 8.08964 211.793 8.09104V7.64422H217.998V8.09104H217.702C217.087 8.09104 216.665 8.29662 216.437 8.70778C216.28 9.00006 216.202 9.57414 216.202 10.43V15.3345C215.295 15.824 214.4 16.1834 213.519 16.4128C212.637 16.6421 211.656 16.7561 210.576 16.7547C207.483 16.7547 205.131 15.7625 203.521 13.778C202.316 12.2886 201.713 10.5706 201.713 8.62386C201.713 7.21557 202.052 5.86392 202.73 4.56891C203.535 3.03197 204.637 1.85024 206.039 1.02373C207.212 0.339866 208.598 -0.00136809 210.196 3.04044e-05C210.779 -0.00136809 211.311 0.045478 211.791 0.140576C212.265 0.234275 212.939 0.442647 213.815 0.7657C214.255 0.930723 214.551 1.01254 214.702 1.01115C214.852 1.01115 214.979 0.94261 215.084 0.805558C215.189 0.668505 215.254 0.400001 215.279 3.04044e-05H215.718ZM182.705 0.362936H187.054L196.85 12.383V3.14035C196.849 2.15581 196.739 1.54187 196.519 1.29854C196.225 0.967092 195.764 0.801371 195.137 0.801371H194.579V0.362936H200.159V0.801371H199.59C198.912 0.802769 198.431 1.00695 198.149 1.41391C197.977 1.66844 197.891 2.24391 197.891 3.14035V16.6456H197.463L186.901 3.7424V13.6123C186.899 14.5955 187.005 15.2101 187.218 15.4562C187.518 15.7863 187.98 15.9513 188.602 15.9513H189.166V16.3876H183.593V15.9513H184.144C184.83 15.9513 185.315 15.7457 185.6 15.3345C185.774 15.0842 185.86 14.5101 185.858 13.6123V2.46698C185.394 1.92297 185.042 1.56425 184.803 1.39084C184.561 1.21742 184.209 1.0559 183.746 0.906258C183.515 0.837732 183.168 0.802769 182.705 0.801371V0.362936ZM182.074 15.9534V16.3897H175.206V15.9534H175.774C176.436 15.9534 176.916 15.7597 177.213 15.3723C177.404 15.1206 177.499 14.5143 177.501 13.5536V3.19909C177.499 2.38796 177.448 1.85303 177.348 1.59431C177.267 1.39573 177.105 1.22581 176.863 1.08456C176.516 0.895764 176.153 0.802072 175.774 0.803471H175.206V0.362936H182.074V0.803471H181.493C180.84 0.803471 180.364 0.995764 180.064 1.38035C179.867 1.63348 179.768 2.23972 179.766 3.19909V13.5536C179.768 14.3647 179.819 14.8996 179.92 15.1583C180.001 15.3555 180.166 15.5254 180.417 15.6681C180.755 15.8569 181.114 15.952 181.493 15.9534H182.074ZM173.949 0.362936V0.803471C173.382 0.904163 172.951 1.08386 172.659 1.34258C172.242 1.73136 171.873 2.32293 171.55 3.11728L165.959 16.7568H165.523L159.521 2.94107C159.212 2.23204 158.994 1.7992 158.867 1.64257C158.674 1.39643 158.432 1.20553 158.141 1.06988C157.855 0.930026 157.469 0.84123 156.981 0.803471V0.362936H163.526V0.803471C162.784 0.873396 162.303 0.997855 162.082 1.17686C161.863 1.36007 161.752 1.59292 161.751 1.87542C161.751 2.26979 161.933 2.88443 162.296 3.71933L166.374 13.113L170.155 3.841C170.525 2.92499 170.71 2.29007 170.71 1.93625C170.71 1.70689 170.596 1.48803 170.366 1.27965C170.138 1.07127 169.753 0.924437 169.211 0.839129C169.171 0.830738 169.104 0.818854 169.007 0.803471V0.362936H173.949ZM155.819 15.9534V16.3897H148.948V15.9534H149.517C150.178 15.9534 150.659 15.7597 150.958 15.3723C151.148 15.1206 151.243 14.5143 151.243 13.5536V3.19909C151.243 2.38796 151.192 1.85303 151.09 1.59431C151.009 1.39573 150.848 1.22581 150.606 1.08456C150.259 0.895764 149.896 0.802072 149.517 0.803471H148.948V0.362936H155.819V0.803471H155.237C154.584 0.803471 154.108 0.995764 153.809 1.38035C153.61 1.63348 153.511 2.23972 153.511 3.19909V13.5536C153.511 14.3647 153.562 14.8996 153.664 15.1583C153.745 15.3555 153.91 15.5254 154.159 15.6681C154.499 15.8569 154.858 15.952 155.237 15.9534H155.819ZM147.075 11.9551L147.467 12.0411L146.095 16.3897H133.689V15.9534H134.294C134.972 15.952 135.456 15.7317 135.745 15.2926C135.91 15.0367 135.993 14.4528 135.993 13.541V3.19909C135.993 2.19917 135.882 1.57404 135.661 1.32371C135.354 0.97688 134.898 0.803471 134.294 0.803471H133.689V0.362936H140.945V0.803471C140.094 0.79508 139.497 0.872693 139.154 1.03632C138.811 1.20274 138.577 1.41251 138.451 1.66564C138.327 1.91737 138.264 2.52012 138.262 3.4739V13.541C138.264 14.1941 138.327 14.643 138.451 14.8877C138.545 15.0528 138.69 15.1751 138.888 15.2548C139.085 15.3331 139.699 15.3723 140.732 15.3723H141.9C143.131 15.3723 143.994 15.2821 144.491 15.1017C144.986 14.9199 145.439 14.5989 145.85 14.1388C146.258 13.6773 146.667 12.9494 147.075 11.9551ZM115.781 16.3897V15.9534H116.383C117.061 15.9534 117.541 15.7352 117.822 15.2989C117.997 15.0402 118.084 14.4584 118.084 13.5536V3.19909C118.083 2.19917 117.973 1.57404 117.755 1.32371C117.447 0.97688 116.99 0.803471 116.383 0.803471H115.781V0.362936H122.305C124.698 0.364335 126.519 0.635644 127.77 1.17686C129.016 1.72228 130.02 2.62921 130.784 3.89765C131.543 5.16608 131.924 6.631 131.925 8.29241C131.925 10.523 131.248 12.3872 129.892 13.885C128.37 15.5548 126.052 16.3897 122.941 16.3897H115.781ZM120.352 15.2318C121.352 15.4527 122.191 15.5632 122.869 15.5632C124.697 15.5632 126.214 14.9199 127.419 13.6333C128.626 12.3509 129.23 10.6097 129.23 8.40989C129.23 6.19886 128.626 4.45494 127.419 3.17811C126.214 1.89988 124.666 1.26148 122.777 1.26288C122.068 1.26148 121.26 1.37544 120.352 1.6048V15.2318ZM92.2526 0.365036V0.803471C91.8373 0.803471 91.4981 0.877591 91.2352 1.02583C90.9765 1.17827 90.7289 1.45797 90.4926 1.86493C90.3346 2.14183 90.0863 2.80052 89.7479 3.841L85.2818 16.7568H84.8098L81.1555 6.51143L77.5306 16.7568H77.1027L72.3429 3.45083C71.9863 2.45789 71.7618 1.86982 71.6695 1.68661C71.5101 1.38873 71.2947 1.16708 71.0234 1.02163C70.7521 0.876188 70.3836 0.803471 69.9179 0.803471V0.365036H75.8524V0.803471H75.5692C75.1497 0.803471 74.8294 0.897864 74.6084 1.08666C74.3903 1.27686 74.2805 1.50552 74.2791 1.77263C74.2791 2.04813 74.4525 2.68235 74.7993 3.67529L77.9523 12.6662L80.6122 5.02413L80.1402 3.67529L79.7647 2.59914C79.5983 2.20476 79.4123 1.85793 79.2067 1.55865C79.1032 1.41041 78.9774 1.28385 78.8291 1.17896C78.6305 1.03911 78.434 0.937018 78.2396 0.872687C78.0872 0.827935 77.8509 0.804869 77.5306 0.803471V0.365036H83.7693V0.803471H83.3414C82.9022 0.803471 82.5799 0.897864 82.3743 1.08666C82.1687 1.27546 82.0666 1.53069 82.068 1.85234C82.068 2.25651 82.245 2.95855 82.5988 3.95848L85.6699 12.6662L88.7179 3.841C89.0647 2.86345 89.2381 2.18588 89.2381 1.80829C89.2381 1.62788 89.1822 1.45867 89.0703 1.30064C88.9542 1.14261 88.8102 1.03212 88.6382 0.969188C88.3389 0.857308 87.9487 0.802072 87.4676 0.803471V0.365036H92.2526ZM52.1773 16.3897V15.9555H52.7793C53.4562 15.9555 53.9359 15.7373 54.2184 15.301C54.3932 15.0423 54.4806 14.4598 54.4806 13.5536V3.19909C54.4792 2.19917 54.3694 1.57404 54.1512 1.32371C53.8422 0.97688 53.3848 0.803471 52.7793 0.803471H52.1773V0.365036H58.6991C61.092 0.366435 62.9142 0.637744 64.1659 1.17896C65.4119 1.72438 66.4161 2.63061 67.1782 3.89765C67.9376 5.16748 68.318 6.6331 68.3194 8.29451C68.3194 10.5251 67.6418 12.3886 66.2867 13.885C64.7651 15.5548 62.4485 16.3897 59.3369 16.3897H52.1773ZM56.7482 15.2318C57.7482 15.4541 58.5873 15.5646 59.2655 15.5632C61.092 15.5646 62.6086 14.922 63.8155 13.6354C65.021 12.3516 65.6245 10.6104 65.6259 8.41199C65.6245 6.19956 65.021 4.45564 63.8155 3.18021C62.61 1.90198 61.0619 1.26288 59.1711 1.26288C58.4621 1.26288 57.6545 1.37754 56.7482 1.6069V15.2318ZM51.6151 16.3897H47.3357L41.9109 8.89867C41.5109 8.91125 41.1844 8.91825 40.9312 8.91965C40.8305 8.91965 40.7201 8.91825 40.5998 8.91545C40.4837 8.91265 40.3613 8.90706 40.2327 8.89867V13.5536C40.2341 14.5619 40.3446 15.1884 40.5641 15.4331C40.8662 15.78 41.3151 15.9534 41.9109 15.9534H42.5402V16.3897H35.6743V15.9534H36.2763C36.9532 15.9534 37.4371 15.7331 37.728 15.2926C37.8944 15.0465 37.9776 14.4668 37.9776 13.5536V3.19909C37.9762 2.19078 37.8664 1.56565 37.6483 1.32371C37.3392 0.97688 36.8819 0.803471 36.2763 0.803471H35.6743V0.365036H41.5123C43.2143 0.363638 44.4687 0.488799 45.2757 0.740528C46.0826 0.985265 46.7679 1.44048 47.3315 2.10616C47.8937 2.77325 48.1748 3.56829 48.1748 4.4913C48.1762 5.47444 47.8552 6.32893 47.2119 7.05475C46.5714 7.77778 45.5777 8.28893 44.231 8.5882L47.537 13.1865C48.2936 14.2437 48.9432 14.9458 49.4858 15.2926C50.0299 15.6366 50.7396 15.8569 51.6151 15.9534V16.3897ZM40.2327 8.15397C40.3851 8.15257 40.5159 8.15397 40.625 8.15817C40.734 8.16236 40.8235 8.16516 40.8935 8.16655C42.4234 8.16516 43.5758 7.83442 44.3506 7.17432C45.1295 6.51284 45.5183 5.66954 45.5169 4.64444C45.5169 3.64312 45.2036 2.82989 44.5771 2.20476C43.952 1.57824 43.1227 1.26428 42.0892 1.26288C41.6333 1.26428 41.0144 1.33979 40.2327 1.48943V8.15397ZM28.4937 11.0258H22.2907L21.2061 13.5557C20.9362 14.1752 20.8013 14.6402 20.8013 14.9507C20.8027 15.1926 20.9187 15.4066 21.1495 15.5926C21.3816 15.7772 21.8844 15.8981 22.6578 15.9555V16.3918H17.6106V15.9555C18.2805 15.8352 18.7133 15.6807 18.9091 15.4919C19.3119 15.1157 19.7573 14.3479 20.2454 13.1886L25.8841 0.0021302H26.2953L31.8732 13.3291C32.3221 14.4018 32.7297 15.0968 33.0961 15.4143C33.464 15.7345 33.9751 15.9149 34.6296 15.9555V16.3918H28.3049V15.9555C28.9412 15.9233 29.3726 15.8156 29.5992 15.6324C29.8244 15.4548 29.9369 15.2346 29.9369 14.9716C29.9355 14.6262 29.7768 14.0787 29.4608 13.3291L28.4937 11.0258ZM28.1643 10.151L25.4457 3.67529L22.6578 10.151H28.1643ZM4.5584 7.79945H12.0054V3.21168C12.004 2.39216 11.9523 1.85303 11.8502 1.59431C11.7705 1.39712 11.6054 1.22791 11.3551 1.08666C11.0167 0.897864 10.658 0.803471 10.279 0.803471H9.71257V0.365036H16.5659V0.803471H15.9974C15.6212 0.803471 15.2639 0.893669 14.9255 1.07408C14.6723 1.20134 14.5003 1.39223 14.4094 1.64676C14.3199 1.90408 14.2752 2.42572 14.2752 3.21168V13.5536C14.2738 14.3647 14.3248 14.9003 14.4283 15.1604C14.5052 15.3576 14.6667 15.5268 14.9129 15.6681C15.2597 15.8583 15.6212 15.9541 15.9974 15.9555H16.5659V16.3897H9.71257V15.9555H10.279C10.9335 15.9555 11.4103 15.7618 11.7096 15.3744C11.9068 15.1227 12.0054 14.5157 12.0054 13.5536V8.67421H4.5584V13.5536C4.5584 14.3647 4.60945 14.9003 4.71154 15.1604C4.79125 15.3576 4.95837 15.5268 5.2129 15.6681C5.54994 15.8583 5.90726 15.9541 6.28485 15.9555H6.86592V16.3897H0V15.9555H0.564298C1.22579 15.9555 1.70757 15.7618 2.00964 15.3744C2.19564 15.1227 2.28934 14.5157 2.29074 13.5536V3.21168C2.29074 2.39216 2.2397 1.85303 2.13761 1.59431C2.05789 1.39712 1.89706 1.22791 1.65512 1.08666C1.30829 0.897864 0.944689 0.803471 0.564298 0.803471H0V0.365036H6.86592V0.803471H6.28485C5.90726 0.803471 5.54994 0.893669 5.2129 1.07408C4.96676 1.20134 4.79685 1.39223 4.70315 1.64676C4.60665 1.90408 4.5584 2.42572 4.5584 3.21168V7.79945ZM98.9591 0.0021302C100.201 0.0021302 101.344 0.282531 102.387 0.843328C102.081 1.06149 101.785 1.30343 101.499 1.56914L101.43 1.63207C100.692 1.11882 99.7947 0.862201 98.7388 0.862201C97.3026 0.862201 96.1516 1.39503 95.2859 2.46068C94.2077 3.78226 93.6686 5.71918 93.6686 8.27144C93.6686 10.8894 94.228 12.9026 95.3468 14.3108C96.2041 15.3835 97.3382 15.9198 98.7493 15.9198C100.254 15.9184 101.497 15.3311 102.477 14.1577C103.457 12.983 103.948 11.1314 103.95 8.60289C103.95 6.98762 103.762 5.6143 103.385 4.48291C103.599 3.91233 103.885 3.3774 104.264 2.9096C104.361 2.79213 104.461 2.68235 104.564 2.58026C105.959 4.1242 106.656 6.02545 106.656 8.28403C106.656 10.7202 105.887 12.741 104.348 14.3465C102.811 15.9548 100.952 16.7589 98.7703 16.7589C96.5663 16.7575 94.7133 15.9737 93.2113 14.4073C91.7107 12.8382 90.9604 10.809 90.9604 8.31969C90.9618 5.77582 91.8282 3.69975 93.5595 2.09148C95.0671 0.697175 96.8669 0.000731702 98.9591 0.0021302ZM107.386 0.0021302C109.467 0.0021302 111.269 0.791577 112.794 2.37048C114.318 3.95078 115.081 5.92197 115.082 8.28403C115.081 10.7202 114.312 12.741 112.775 14.3465C111.238 15.9548 109.378 16.7589 107.195 16.7589C105.884 16.7589 104.697 16.4806 103.633 15.924C103.966 15.6821 104.286 15.4115 104.594 15.1122C105.315 15.6506 106.176 15.9198 107.176 15.9198C108.681 15.9184 109.923 15.3311 110.902 14.1577C111.883 12.983 112.374 11.1314 112.374 8.60289C112.374 5.86323 111.834 3.81932 110.753 2.47117C109.887 1.39852 108.691 0.862201 107.163 0.862201C105.729 0.862201 104.578 1.39503 103.71 2.46068C102.632 3.78226 102.093 5.71918 102.093 8.27144C102.093 9.83916 102.294 11.1901 102.695 12.3243C102.508 12.834 102.259 13.3039 101.929 13.6983C101.776 13.8829 101.615 14.05 101.447 14.1997C100.074 12.6613 99.387 10.7013 99.387 8.31969C99.387 5.77582 100.253 3.69975 101.984 2.09148C103.492 0.697175 105.292 0.000731702 107.386 0.0021302Z" fill="#333333"/>
</svg>
