<svg width="188" height="29" viewBox="0 0 188 29" fill="none" xmlns="http://www.w3.org/2000/svg">
<path d="M27.998 14.0041C27.998 21.0768 22.7569 26.924 15.9482 27.8728C15.3115 27.9611 14.6602 28.0073 13.999 28.0073C13.2358 28.0073 12.4864 27.9464 11.7566 27.8287C5.09109 26.7552 0 20.9738 0 14.0041C0 6.27006 6.26822 0 14 0C21.7318 0 28 6.27006 28 14.0041H27.998Z" fill="#333333"/>
<path d="M15.9522 11.2468V14.2975H19.7249L19.1275 18.4069H15.9522V27.8748C15.3156 27.9631 14.6642 28.0092 14.0031 28.0092C13.2399 28.0092 12.4905 27.9484 11.7607 27.8306V18.4069H8.28125V14.2975H11.7607V10.5649C11.7607 8.24917 13.6372 6.37109 15.9532 6.37109V6.37306C15.9601 6.37306 15.9659 6.37109 15.9728 6.37109L19.7259 6.37109V9.92511H17.2735C16.5447 9.92511 15.9532 10.5168 15.9532 11.2459L15.9522 11.2468Z" fill="white"/>
<path d="M54.0319 0L53.9681 0C46.2537 0 40 6.25558 40 13.9722V14.036C40 21.7527 46.2537 28.0082 53.9681 28.0082H54.0319C61.7463 28.0082 68 21.7527 68 14.036V13.9722C68 6.25558 61.7463 0 54.0319 0Z" fill="#333333"/>
<path d="M58.3251 5.69922L49.6611 5.69922C47.2675 5.69922 45.3203 7.64703 45.3203 10.0413V17.9699C45.3203 20.3642 47.2675 22.312 49.6611 22.312H58.3251C60.7187 22.312 62.6659 20.3642 62.6659 17.9699V10.0413C62.6659 7.64703 60.7187 5.69922 58.3251 5.69922ZM46.8516 10.0413C46.8516 8.4919 48.1122 7.23097 49.6611 7.23097L58.3251 7.23097C59.8741 7.23097 61.1346 8.4919 61.1346 10.0413V17.9699C61.1346 19.5194 59.8741 20.7803 58.3251 20.7803H49.6611C48.1122 20.7803 46.8516 19.5194 46.8516 17.9699V10.0413Z" fill="white"/>
<path d="M53.9986 18.0426C56.2245 18.0426 58.0363 16.2312 58.0363 14.0037C58.0363 11.7763 56.2255 9.96484 53.9986 9.96484C51.7718 9.96484 49.9609 11.7763 49.9609 14.0037C49.9609 16.2312 51.7718 18.0426 53.9986 18.0426ZM53.9986 11.4976C55.3808 11.4976 56.505 12.6221 56.505 14.0047C56.505 15.3873 55.3808 16.5118 53.9986 16.5118C52.6164 16.5118 51.4922 15.3873 51.4922 14.0047C51.4922 12.6221 52.6164 11.4976 53.9986 11.4976Z" fill="white"/>
<path d="M58.4082 10.6159C59.0076 10.6159 59.4961 10.1282 59.4961 9.52768C59.4961 8.92714 59.0086 8.43945 58.4082 8.43945C57.8079 8.43945 57.3203 8.92714 57.3203 9.52768C57.3203 10.1282 57.8079 10.6159 58.4082 10.6159Z" fill="white"/>
<path d="M107.998 14.0041C107.998 21.0768 102.757 26.924 95.9481 27.8728C95.3115 27.9612 94.6602 28.0073 93.999 28.0073C93.2358 28.0073 92.4864 27.9464 91.7566 27.8287C85.0911 26.7552 80 20.9738 80 14.0041C80 6.27006 86.2682 0 94 0C101.732 0 108 6.27006 108 14.0041H107.998Z" fill="#333333"/>
<path d="M85.6808 6.17383L92.1374 14.8087L85.6406 21.8294H87.1032L92.7917 15.6829L97.3874 21.8294H102.364L95.5442 12.7088L101.592 6.17383H100.129L94.8909 11.8346L90.6581 6.17383H85.6818H85.6808ZM87.8311 7.25122H90.1167L100.212 20.752H97.9259L87.8311 7.25122Z" fill="white"/>
<path d="M134.032 0L133.968 0C126.254 0 120 6.25558 120 13.9722V14.036C120 21.7527 126.254 28.0082 133.968 28.0082H134.032C141.746 28.0082 148 21.7527 148 14.036V13.9722C148 6.25558 141.746 0 134.032 0Z" fill="#333333"/>
<path d="M136.727 18.1006C133.143 18.1006 130.228 15.1833 130.227 11.5987C130.228 10.6901 130.967 9.95117 131.874 9.95117C131.967 9.95117 132.059 9.95902 132.147 9.97472C132.342 10.0071 132.526 10.0728 132.696 10.172C132.72 10.1867 132.737 10.2102 132.741 10.2377L133.119 12.6251C133.124 12.6526 133.116 12.6811 133.097 12.7017C132.888 12.9332 132.621 13.1001 132.324 13.1835L132.181 13.2237L132.235 13.3621C132.723 14.6063 133.718 15.6003 134.963 16.0909L135.101 16.1459L135.141 16.0026C135.225 15.7053 135.391 15.4384 135.623 15.2294C135.64 15.2137 135.662 15.2058 135.685 15.2058C135.69 15.2058 135.695 15.2058 135.7 15.2068L138.087 15.5856C138.116 15.5905 138.139 15.6062 138.154 15.6307C138.252 15.8005 138.318 15.986 138.351 16.1802C138.367 16.2666 138.374 16.3579 138.374 16.453C138.374 17.3607 137.635 18.0996 136.727 18.1006Z" fill="#FDFDFD"/>
<path d="M143.08 13.2162C142.887 11.032 141.886 9.00564 140.263 7.51117C138.629 6.00788 136.51 5.17969 134.294 5.17969C129.431 5.17969 125.473 9.13811 125.473 14.0032C125.473 15.636 125.924 17.2267 126.776 18.6122L124.875 22.8218L130.962 22.1732C132.02 22.6069 133.141 22.8268 134.293 22.8268C134.596 22.8268 134.907 22.8111 135.219 22.7787C135.494 22.7492 135.772 22.7061 136.044 22.6511C140.117 21.8278 143.091 18.2119 143.114 14.0503V14.0032C143.114 13.7383 143.103 13.4733 143.079 13.2172L143.08 13.2162ZM131.196 20.3255L127.829 20.6847L128.834 18.4562L128.633 18.1864C128.618 18.1667 128.604 18.1471 128.587 18.1245C127.714 16.9186 127.253 15.4938 127.253 14.0042C127.253 10.1204 130.412 6.96069 134.294 6.96069C137.932 6.96069 141.015 9.79948 141.312 13.4233C141.328 13.6176 141.337 13.8129 141.337 14.0052C141.337 14.0601 141.336 14.1141 141.335 14.172C141.26 17.421 138.991 20.1803 135.817 20.8829C135.575 20.9368 135.326 20.9781 135.079 21.0045C134.822 21.034 134.558 21.0487 134.296 21.0487C133.363 21.0487 132.457 20.8681 131.601 20.511C131.505 20.4727 131.412 20.4315 131.325 20.3893L131.197 20.3275L131.196 20.3255Z" fill="#FDFDFD"/>
<path d="M174.032 0L173.968 0C166.254 0 160 6.25558 160 13.9722V14.036C160 21.7527 166.254 28.0083 173.968 28.0083H174.032C181.746 28.0083 188 21.7527 188 14.036V13.9722C188 6.25558 181.746 0 174.032 0Z" fill="#333333"/>
<path d="M165.3 13.5238C165.34 13.5042 165.379 13.4855 165.417 13.4679C166.082 13.1598 166.756 12.8713 167.429 12.5828C167.465 12.5828 167.526 12.5406 167.561 12.5268C167.613 12.5043 167.665 12.4827 167.717 12.4601C167.817 12.4169 167.917 12.3748 168.016 12.3316C168.216 12.2462 168.415 12.1608 168.615 12.0755L169.813 11.5623C170.611 11.2208 171.411 10.8783 172.209 10.5368C173.008 10.1954 173.808 9.8529 174.606 9.51142C175.405 9.16994 176.204 8.82748 177.003 8.486C177.801 8.14452 178.601 7.80206 179.399 7.46058C179.577 7.38404 179.769 7.27021 179.959 7.23684C180.119 7.20839 180.275 7.15344 180.436 7.12302C180.741 7.06513 181.078 7.04158 181.37 7.16816C181.471 7.21232 181.564 7.27414 181.642 7.35166C182.012 7.71865 181.96 8.32114 181.882 8.83729C181.336 12.4346 180.789 16.0329 180.242 19.6302C180.167 20.1238 180.065 20.6655 179.676 20.9775C179.346 21.2415 178.877 21.2709 178.47 21.159C178.063 21.0462 177.704 20.8097 177.352 20.5771C175.891 19.6096 174.429 18.6421 172.969 17.6746C172.622 17.4449 172.235 17.1447 172.239 16.7276C172.241 16.4764 172.391 16.2527 172.544 16.0535C173.813 14.3971 175.645 13.2589 177.007 11.679C177.2 11.4563 177.351 11.054 177.087 10.9254C176.93 10.8489 176.749 10.9529 176.606 11.052C174.805 12.3031 173.005 13.5552 171.204 14.8063C170.616 15.2145 170 15.6345 169.292 15.7346C168.658 15.8249 168.021 15.6483 167.408 15.4677C166.894 15.3166 166.381 15.1615 165.869 15.0016C165.598 14.9172 165.317 14.826 165.107 14.6346C164.897 14.4433 164.777 14.1214 164.903 13.8663C164.983 13.7063 165.137 13.6053 165.299 13.5228L165.3 13.5238Z" fill="#FEFFFC"/>
</svg>
