<svg width="241" height="90" viewBox="0 0 241 90" fill="none" xmlns="http://www.w3.org/2000/svg">
<g clip-path="url(#clip0_327_1390)">
<path fill-rule="evenodd" clip-rule="evenodd" d="M227.323 55.9648C229.296 55.9648 230.896 57.566 230.896 59.5397C230.896 61.5113 229.296 63.1125 227.323 63.1125C225.349 63.1125 223.75 61.5113 223.75 59.5397C223.75 57.566 225.349 55.9648 227.323 55.9648ZM224.053 59.5397C224.053 61.3439 225.519 62.8069 227.323 62.8069C229.129 62.8069 230.592 61.3439 230.592 59.5397C230.592 57.7334 229.129 56.2704 227.323 56.2704C225.519 56.2704 224.053 57.7334 224.053 59.5397ZM225.908 61.3732V57.7041H227.534C227.862 57.7041 228.11 57.7369 228.279 57.8025C228.449 57.8695 228.586 57.986 228.689 58.152C228.79 58.3195 228.84 58.5037 228.84 58.7046C228.842 58.9655 228.758 59.1853 228.589 59.3639C228.42 59.5425 228.159 59.6562 227.806 59.7051C227.936 59.7651 228.034 59.8257 228.101 59.8871C228.242 60.0169 228.376 60.1795 228.503 60.3748L229.142 61.3732H228.53L228.045 60.6092C227.904 60.3902 227.787 60.222 227.695 60.1048C227.603 59.9876 227.521 59.906 227.448 59.8599C227.376 59.8125 227.302 59.7797 227.226 59.7616C227.172 59.7504 227.082 59.7448 226.956 59.7448H226.393V61.3732H225.908ZM226.393 59.3241H227.438C227.658 59.3241 227.831 59.3011 227.957 59.255C228.083 59.209 228.177 59.1358 228.242 59.0353C228.307 58.9334 228.34 58.8232 228.34 58.7046C228.34 58.5316 228.277 58.3892 228.152 58.2776C228.026 58.166 227.826 58.1102 227.553 58.1102H226.393V59.3241Z" fill="#333333"/>
<path d="M98.0735 30.0427C100.543 30.5618 102.747 31.6083 104.344 30.6811C104.953 30.3274 110.272 26.0472 111.061 27.1272C111.343 27.5165 110.154 30.0469 111.797 29.4985C113.198 29.0297 114.493 28.1548 115.326 26.8718C115.973 25.8755 116.092 24.5067 117.643 24.4293C118.449 24.3895 119.696 25.3188 119.104 26.269C117.363 29.0632 119.048 29.103 120.188 27.1962C120.747 26.2648 120.712 23.9793 120.982 23.0374C121.511 21.2039 122.895 20.1051 124.182 23.32C124.477 24.0609 124.699 24.3581 125.134 24.6721C125.917 25.2372 128.994 22.1123 129.27 21.8737C132.024 19.5065 132.409 21.4635 131.673 23.4079C131.233 24.5737 130.151 25.5176 129.598 26.1246C129.213 26.5453 129.881 26.5055 130.155 26.5034C136.687 26.4427 134.075 28.3453 129.877 29.823C128.261 30.3923 131.631 32.029 131.053 32.7887C130.731 33.2136 127.958 34.1073 125.362 33.2618C123.579 32.6799 123.805 32.2927 122.313 32.0206C120.268 31.646 116.846 32.5794 121.8 33.9734C125.343 34.9697 125.557 36.3573 123.811 37.0145C121.706 37.8057 116.195 37.7952 114.47 36.3427C112.961 35.0701 111.546 34.2476 111.961 36.0099C112.281 37.3703 110.324 37.8706 108.892 37.2406C108.02 36.8555 104.468 33.3015 103.923 32.5564C104.698 33.1885 118.277 33.312 125.304 27.0727C115.99 32.4936 106.483 32.4769 97.3891 31.2902C97.1359 30.8402 96.937 30.7104 98.0735 30.0427ZM122.398 19.9795V16.8023C122.397 14.98 122.283 13.7807 122.057 13.2045C121.877 12.7649 121.509 12.3882 120.952 12.0742C120.199 11.6528 119.4 11.4428 118.556 11.4442H117.3V10.4668H132.548V11.4442H131.283C130.446 11.4428 129.65 11.6438 128.895 12.047C128.33 12.3254 127.953 12.7545 127.746 13.3217C127.549 13.8938 127.451 15.054 127.451 16.8023V21.8067C127.176 22.0593 126.895 22.3049 126.608 22.5435C126.411 22.7046 125.948 23.0772 125.588 23.2969C125.509 23.1651 125.454 23.0144 125.383 22.8407C124.877 21.5765 123.945 19.9356 122.398 19.9795ZM127.451 34.9048V39.815C127.451 41.6192 127.558 42.8122 127.792 43.3877C127.962 43.8273 128.321 44.204 128.868 44.518C129.641 44.9408 130.446 45.1529 131.283 45.1542H132.548V46.1254H117.3V45.1542H118.556C120.01 45.1542 121.078 44.7252 121.743 43.8629C122.183 43.3061 122.398 41.9519 122.398 39.815V38.6701C123.118 38.5655 123.761 38.4148 124.268 38.2243C125.17 37.8852 126.022 37.2511 126.158 36.2276C126.233 35.6499 126.055 35.1371 125.739 34.7039C126.3 34.8252 126.873 34.8922 127.451 34.9048ZM105.83 36.3929V39.815C105.832 41.6205 105.945 42.8115 106.171 43.3877C106.349 43.8273 106.719 44.204 107.283 44.518C108.038 44.9408 108.827 45.1542 109.671 45.1542H110.964V46.1254H95.6875V45.1542H96.9454C98.4147 45.1542 99.4856 44.7238 100.158 43.8629C100.57 43.3061 100.786 41.9519 100.786 39.815V32.9646C101.435 33.0218 102.081 33.0699 102.724 33.109L102.877 33.3183C103.157 33.7034 103.538 34.0948 103.867 34.438C104.361 34.9557 104.865 35.4622 105.378 35.9576C105.506 36.081 105.659 36.2297 105.83 36.3929ZM100.786 29.4002V16.8023C100.785 14.98 100.671 13.7807 100.445 13.2045C100.265 12.7649 99.9056 12.3882 99.367 12.0742C98.5954 11.6528 97.7882 11.4428 96.9454 11.4442H95.6875V10.4668H110.964V11.4442H109.671C108.827 11.4442 108.038 11.6431 107.283 12.047C106.737 12.3254 106.36 12.7545 106.153 13.3217C105.938 13.8938 105.83 15.054 105.83 16.8023V21.9051V27.0079V28.0251C105.46 28.2846 105.093 28.5476 104.729 28.8141C104.403 29.0527 104.032 29.352 103.691 29.5634C103.616 29.6067 103.537 29.6423 103.455 29.6702C102.887 29.8564 102.073 29.7016 101.506 29.5739C101.265 29.5195 101.025 29.4616 100.786 29.4002Z" fill="#333333"/>
<path fill-rule="evenodd" clip-rule="evenodd" d="M221.512 64.1543L221.922 69.1964H221.512C221.093 67.942 220.554 66.9945 219.894 66.3541C218.944 65.4373 217.722 64.979 216.229 64.979C214.192 64.979 212.644 65.7834 211.585 67.3922C210.696 68.7527 210.251 70.3727 210.251 72.2522C210.251 73.7773 210.545 75.1677 211.133 76.4236C211.724 77.6835 212.497 78.6052 213.452 79.1884C214.406 79.7773 215.386 80.071 216.392 80.0696C216.984 80.0696 217.555 79.9949 218.104 79.8456C218.654 79.6949 219.184 79.4745 219.693 79.1842V74.5608C219.693 73.7612 219.633 73.2366 219.513 72.9868C219.392 72.7413 219.202 72.5536 218.946 72.4238C218.69 72.2913 218.24 72.2257 217.596 72.2271V71.7813H223.787V72.2271H223.492C222.878 72.2271 222.457 72.4322 222.23 72.8424C222.073 73.134 221.995 73.7068 221.995 74.5608V79.4542C221.09 79.9426 220.197 80.3012 219.318 80.53C218.438 80.7589 217.459 80.8726 216.382 80.8712C213.295 80.8712 210.949 79.8812 209.343 77.9012C208.14 76.4152 207.539 74.701 207.539 72.7587C207.539 71.3536 207.877 70.005 208.554 68.7129C209.356 67.1794 210.456 66.0004 211.855 65.1757C213.025 64.4934 214.408 64.1529 216.003 64.1543C216.585 64.1529 217.115 64.1997 217.594 64.2946C218.067 64.388 218.74 64.5959 219.613 64.9183C220.053 65.0829 220.348 65.1646 220.499 65.1632C220.648 65.1632 220.775 65.0948 220.88 64.958C220.984 64.8213 221.049 64.5534 221.074 64.1543H221.512ZM188.574 64.5164H192.913L202.687 76.5094V67.2876C202.686 66.3052 202.576 65.6927 202.357 65.4499C202.064 65.1192 201.604 64.9539 200.977 64.9539H200.421V64.5164H205.988V64.9539H205.421C204.744 64.9553 204.265 65.159 203.983 65.565C203.811 65.819 203.725 66.3931 203.725 67.2876V80.7624H203.298L192.76 67.8882V77.7359C192.759 78.7168 192.864 79.33 193.076 79.5756C193.376 79.9049 193.837 80.0696 194.458 80.0696H195.021V80.5049H189.459V80.0696H190.01C190.694 80.0696 191.178 79.8645 191.462 79.4542C191.635 79.2045 191.721 78.6317 191.72 77.7359V66.6157C191.257 66.0729 190.906 65.715 190.667 65.542C190.426 65.369 190.074 65.2078 189.612 65.0585C189.382 64.9901 189.036 64.9553 188.574 64.9539V64.5164ZM187.944 80.0717V80.507H181.092V80.0717H181.659C182.319 80.0717 182.797 79.8784 183.095 79.4919C183.284 79.2407 183.38 78.6359 183.381 77.6773V67.3462C183.38 66.5369 183.329 66.0031 183.229 65.745C183.148 65.5469 182.986 65.3773 182.745 65.2364C182.399 65.048 182.037 64.9546 181.659 64.956H181.092V64.5164H187.944V64.956H187.364C186.713 64.956 186.238 65.1478 185.939 65.5315C185.742 65.7841 185.643 66.389 185.642 67.3462V77.6773C185.643 78.4866 185.694 79.0203 185.795 79.2784C185.875 79.4752 186.041 79.6447 186.291 79.787C186.628 79.9754 186.986 80.0703 187.364 80.0717H187.944ZM179.838 64.5164V64.956C179.271 65.0564 178.842 65.2357 178.551 65.4938C178.135 65.8818 177.766 66.472 177.443 67.2645L171.866 80.8733H171.43L165.442 67.0887C165.134 66.3813 164.916 65.9494 164.789 65.7932C164.597 65.5476 164.355 65.3571 164.065 65.2218C163.78 65.0822 163.394 64.9936 162.908 64.956V64.5164H169.438V64.956C168.698 65.0257 168.218 65.1499 167.998 65.3285C167.779 65.5113 167.668 65.7436 167.667 66.0255C167.667 66.419 167.848 67.0322 168.211 67.8652L172.28 77.2377L176.052 67.9866C176.421 67.0727 176.606 66.4392 176.606 66.0862C176.606 65.8573 176.492 65.639 176.263 65.4311C176.036 65.2232 175.651 65.0766 175.11 64.9915C175.071 64.9832 175.003 64.9713 174.907 64.956V64.5164H179.838ZM161.748 80.0717V80.507H154.893V80.0717H155.461C156.121 80.0717 156.6 79.8784 156.898 79.4919C157.088 79.2407 157.183 78.6359 157.183 77.6773V67.3462C157.183 66.5369 157.132 66.0031 157.03 65.745C156.949 65.5469 156.788 65.3773 156.547 65.2364C156.201 65.048 155.839 64.9546 155.461 64.956H154.893V64.5164H161.748V64.956H161.168C160.517 64.956 160.041 65.1478 159.743 65.5315C159.545 65.7841 159.446 66.389 159.446 67.3462V77.6773C159.446 78.4866 159.497 79.0203 159.598 79.2784C159.679 79.4752 159.844 79.6447 160.092 79.787C160.431 79.9754 160.79 80.0703 161.168 80.0717H161.748ZM153.024 76.0824L153.416 76.1682L152.047 80.507H139.669V80.0717H140.272C140.948 80.0703 141.431 79.8505 141.72 79.4124C141.885 79.157 141.967 78.5745 141.967 77.6647V67.3462C141.967 66.3485 141.857 65.7248 141.636 65.475C141.329 65.129 140.874 64.956 140.272 64.956H139.669V64.5164H146.909V64.956C146.059 64.9476 145.463 65.025 145.121 65.1883C144.779 65.3543 144.546 65.5636 144.42 65.8162C144.296 66.0673 144.233 66.6687 144.232 67.6204V77.6647C144.233 78.3163 144.296 78.7642 144.42 79.0084C144.513 79.1731 144.659 79.2952 144.855 79.3747C145.052 79.4528 145.665 79.4919 146.695 79.4919H147.861C149.089 79.4919 149.95 79.4019 150.446 79.2219C150.94 79.0405 151.392 78.7203 151.802 78.2612C152.209 77.8007 152.617 77.0745 153.024 76.0824ZM121.801 80.507V80.0717H122.401C123.078 80.0717 123.557 79.854 123.837 79.4186C124.012 79.1605 124.099 78.58 124.099 77.6773V67.3462C124.097 66.3485 123.988 65.7248 123.77 65.475C123.463 65.129 123.007 64.956 122.401 64.956H121.801V64.5164H128.31C130.697 64.5178 132.515 64.7885 133.762 65.3285C135.006 65.8727 136.008 66.7776 136.77 68.0431C137.528 69.3087 137.907 70.7703 137.909 72.428C137.909 74.6536 137.233 76.5136 135.88 78.008C134.361 79.674 132.049 80.507 128.944 80.507H121.801ZM126.361 79.3517C127.359 79.5721 128.196 79.6824 128.873 79.6824C130.697 79.6824 132.21 79.0405 133.413 77.7568C134.617 76.4773 135.219 74.7401 135.219 72.5452C135.219 70.3392 134.617 68.5992 133.413 67.3252C132.21 66.0499 130.666 65.4129 128.781 65.4143C128.074 65.4129 127.267 65.5266 126.361 65.7555V79.3517ZM98.3256 64.5185V64.956C97.9112 64.956 97.5728 65.0299 97.3105 65.1778C97.0523 65.3299 96.8053 65.609 96.5695 66.015C96.4119 66.2913 96.1642 66.9485 95.8265 67.9866L91.3705 80.8733H90.8996L87.2535 70.651L83.6368 80.8733H83.2098L78.4608 67.5973C78.105 66.6066 77.881 66.0199 77.7889 65.8371C77.6299 65.5399 77.415 65.3187 77.1443 65.1736C76.8736 65.0285 76.5059 64.956 76.0413 64.956V64.5185H81.9624V64.956H81.6799C81.2613 64.956 80.9417 65.0501 80.7213 65.2385C80.5036 65.4283 80.394 65.6564 80.3926 65.9229C80.3926 66.1978 80.5657 66.8306 80.9117 67.8213L84.0575 76.7919L86.7114 69.1671L86.2405 67.8213L85.8659 66.7476C85.6998 66.3541 85.5143 66.008 85.3091 65.7094C85.2059 65.5615 85.0803 65.4352 84.9324 65.3306C84.7343 65.1911 84.5382 65.0892 84.3443 65.025C84.1922 64.9804 83.9563 64.9573 83.6368 64.956V64.5185H89.8614V64.956H89.4345C88.9963 64.956 88.6747 65.0501 88.4696 65.2385C88.2645 65.4269 88.1626 65.6815 88.164 66.0025C88.164 66.4057 88.3405 67.1062 88.6935 68.1038L91.7577 76.7919L94.7988 67.9866C95.1449 67.0113 95.3179 66.3352 95.3179 65.9585C95.3179 65.7785 95.2621 65.6097 95.1505 65.452C95.0347 65.2943 94.8909 65.1841 94.7193 65.1213C94.4207 65.0097 94.0314 64.9546 93.5514 64.956V64.5185H98.3256ZM58.3407 80.507V80.0738H58.9414C59.6167 80.0738 60.0953 79.8561 60.3772 79.4207C60.5516 79.1626 60.6388 78.5814 60.6388 77.6773V67.3462C60.6374 66.3485 60.5279 65.7248 60.3102 65.475C60.0019 65.129 59.5456 64.956 58.9414 64.956H58.3407V64.5185H64.8479C67.2353 64.5199 69.0534 64.7906 70.3023 65.3306C71.5455 65.8748 72.5474 66.779 73.3078 68.0431C74.0655 69.3101 74.445 70.7724 74.4464 72.4301C74.4464 74.6557 73.7704 76.5149 72.4183 78.008C70.9002 79.674 68.5888 80.507 65.4841 80.507H58.3407ZM62.9014 79.3517C63.899 79.5735 64.7362 79.6838 65.413 79.6824C67.2353 79.6838 68.7485 79.0426 69.9527 77.7589C71.1555 76.478 71.7576 74.7408 71.759 72.5473C71.7576 70.3399 71.1555 68.5999 69.9527 67.3273C68.7499 66.052 67.2053 65.4143 65.3188 65.4143C64.6114 65.4143 63.8056 65.5287 62.9014 65.7576V79.3517ZM57.7798 80.507H53.51L48.0975 73.0329C47.6984 73.0454 47.3726 73.0524 47.1201 73.0538C47.0196 73.0538 46.9094 73.0524 46.7894 73.0496C46.6736 73.0468 46.5515 73.0412 46.4231 73.0329V77.6773C46.4245 78.6833 46.5347 79.3084 46.7538 79.5526C47.0552 79.8986 47.5031 80.0717 48.0975 80.0717H48.7254V80.507H41.875V80.0717H42.4757C43.151 80.0717 43.6338 79.8519 43.924 79.4124C44.0901 79.1668 44.1731 78.5884 44.1731 77.6773V67.3462C44.1717 66.3401 44.0622 65.7164 43.8445 65.475C43.5361 65.129 43.0799 64.956 42.4757 64.956H41.875V64.5185H47.6998C49.398 64.5171 50.6496 64.642 51.4547 64.8932C52.2598 65.1373 52.9435 65.5915 53.5058 66.2557C54.0668 66.9213 54.3472 67.7145 54.3472 68.6355C54.3486 69.6164 54.0284 70.4689 53.3865 71.1931C52.7475 71.9145 51.7561 72.4245 50.4124 72.7231L53.711 77.311C54.4658 78.3659 55.114 79.0663 55.6554 79.4124C56.1982 79.7556 56.9063 79.9754 57.7798 80.0717V80.507ZM46.4231 72.2899C46.5752 72.2885 46.7057 72.2899 46.8145 72.294C46.9233 72.2982 47.0126 72.301 47.0824 72.3024C48.6089 72.301 49.7587 71.971 50.5317 71.3124C51.3089 70.6524 51.6968 69.811 51.6954 68.7883C51.6954 67.7892 51.3828 66.9778 50.7577 66.3541C50.134 65.729 49.3066 65.4157 48.2754 65.4143C47.8205 65.4157 47.2031 65.4911 46.4231 65.6404V72.2899ZM34.7106 75.1552H28.5216L27.4395 77.6794C27.1702 78.2975 27.0355 78.7614 27.0355 79.0712C27.0369 79.3126 27.1527 79.5261 27.383 79.7117C27.6146 79.8959 28.1162 80.0166 28.8879 80.0738V80.5091H23.8521V80.0738C24.5204 79.9538 24.9523 79.7996 25.1476 79.6112C25.5495 79.2359 25.9939 78.4698 26.4809 77.3131L32.1069 64.1564H32.5171L38.0825 77.4533C38.5304 78.5235 38.9371 79.217 39.3027 79.5338C39.6697 79.8533 40.1796 80.0333 40.8327 80.0738V80.5091H34.5222V80.0738C35.1571 80.0417 35.5876 79.9342 35.8136 79.7514C36.0383 79.5742 36.1506 79.3545 36.1506 79.0921C36.1492 78.7475 35.9908 78.2012 35.6755 77.4533L34.7106 75.1552ZM34.382 74.2824L31.6695 67.8213L28.8879 74.2824H34.382ZM10.8294 71.9361H18.2595V67.3587C18.2582 66.5411 18.2065 66.0031 18.1047 65.745C18.0251 65.5483 17.8605 65.3794 17.6107 65.2385C17.273 65.0501 16.9151 64.956 16.537 64.956H15.9719V64.5185H22.8098V64.956H22.2425C21.8672 64.956 21.5107 65.0459 21.173 65.2259C20.9205 65.3529 20.7488 65.5434 20.6581 65.7973C20.5688 66.0541 20.5242 66.5745 20.5242 67.3587V77.6773C20.5228 78.4866 20.5737 79.021 20.677 79.2805C20.7537 79.4773 20.9149 79.6461 21.1605 79.787C21.5065 79.9768 21.8672 80.0724 22.2425 80.0738H22.8098V80.507H15.9719V80.0738H16.537C17.19 80.0738 17.6658 79.8805 17.9644 79.494C18.1612 79.2428 18.2595 78.6373 18.2595 77.6773V72.8089H10.8294V77.6773C10.8294 78.4866 10.8803 79.021 10.9822 79.2805C11.0617 79.4773 11.2284 79.6461 11.4824 79.787C11.8187 79.9768 12.1752 80.0724 12.5519 80.0738H13.1317V80.507H6.28125V80.0738H6.84427C7.50427 80.0738 7.98496 79.8805 8.28635 79.494C8.47193 79.2428 8.56542 78.6373 8.56682 77.6773V67.3587C8.56682 66.5411 8.51589 66.0031 8.41403 65.745C8.3345 65.5483 8.17403 65.3794 7.93264 65.2385C7.58659 65.0501 7.22381 64.956 6.84427 64.956H6.28125V64.5185H13.1317V64.956H12.5519C12.1752 64.956 11.8187 65.0459 11.4824 65.2259C11.2368 65.3529 11.0673 65.5434 10.9738 65.7973C10.8775 66.0541 10.8294 66.5745 10.8294 67.3587V71.9361ZM105.017 64.1564C106.256 64.1564 107.396 64.4362 108.437 64.9957C108.131 65.2134 107.836 65.4548 107.552 65.7199L107.482 65.7827C106.746 65.2706 105.851 65.0146 104.797 65.0146C103.364 65.0146 102.216 65.5462 101.352 66.6094C100.276 67.928 99.7384 69.8606 99.7384 72.4071C99.7384 75.0191 100.296 77.0277 101.413 78.4328C102.268 79.5031 103.4 80.0382 104.808 80.0382C106.309 80.0368 107.549 79.4507 108.527 78.28C109.505 77.108 109.995 75.2605 109.996 72.7378C109.996 71.1261 109.809 69.7559 109.433 68.6271C109.647 68.0578 109.931 67.5241 110.31 67.0573C110.406 66.9401 110.506 66.8306 110.609 66.7287C112.001 68.2692 112.696 70.1661 112.696 72.4196C112.696 74.8503 111.929 76.8666 110.394 78.4684C108.86 80.0731 107.005 80.8754 104.829 80.8754C102.629 80.874 100.781 80.0919 99.2821 78.5291C97.7849 76.9635 97.0363 74.9389 97.0363 72.4552C97.0377 69.9171 97.9021 67.8457 99.6295 66.2411C101.134 64.8499 102.929 64.155 105.017 64.1564ZM113.425 64.1564C115.501 64.1564 117.299 64.9441 118.82 66.5194C120.341 68.0962 121.102 70.0629 121.104 72.4196C121.102 74.8503 120.335 76.8666 118.801 78.4684C117.268 80.0731 115.412 80.8754 113.234 80.8754C111.927 80.8754 110.742 80.5977 109.68 80.0424C110.012 79.801 110.332 79.531 110.639 79.2324C111.359 79.7696 112.218 80.0382 113.215 80.0382C114.717 80.0368 115.956 79.4507 116.932 78.28C117.912 77.108 118.402 75.2605 118.402 72.7378C118.402 70.0043 117.862 67.965 116.784 66.6199C115.92 65.5497 114.726 65.0146 113.203 65.0146C111.771 65.0146 110.623 65.5462 109.758 66.6094C108.682 67.928 108.144 69.8606 108.144 72.4071C108.144 73.9712 108.344 75.3191 108.745 76.4508C108.558 76.9594 108.309 77.4282 107.981 77.8217C107.827 78.0059 107.667 78.1726 107.499 78.3219C106.129 76.787 105.444 74.8315 105.444 72.4552C105.444 69.9171 106.308 67.8457 108.035 66.2411C109.539 64.8499 111.336 64.155 113.425 64.1564Z" fill="#333333"/>
</g>
<defs>
<clipPath id="clip0_327_1390">
<rect width="240.487" height="89.9994" fill="white"/>
</clipPath>
</defs>
</svg>
