<svg width="802" height="222" viewBox="0 0 802 222" fill="none" xmlns="http://www.w3.org/2000/svg">
<path d="M15.444 29.838V43.02H36.426V51.444H15.444V75H4.602V20.4H39.234V29.838H15.444ZM78.0579 65.562V75H43.5819L43.5039 20.4H54.4239L54.3459 65.562H78.0579ZM104.752 75.624C99.3962 75.624 94.8202 74.402 91.0242 71.958C87.2802 69.462 84.4462 66.108 82.5222 61.896C80.6502 57.632 79.7142 52.9 79.7142 47.7C79.7142 42.448 80.6762 37.69 82.6002 33.426C84.5242 29.11 87.3582 25.678 91.1022 23.13C94.8982 20.582 99.4482 19.308 104.752 19.308C110.056 19.308 114.58 20.582 118.324 23.13C122.068 25.626 124.902 29.032 126.826 33.348C128.75 37.612 129.712 42.396 129.712 47.7C129.712 52.952 128.75 57.71 126.826 61.974C124.902 66.186 122.042 69.514 118.246 71.958C114.502 74.402 110.004 75.624 104.752 75.624ZM104.752 65.952C109.016 65.952 112.318 64.236 114.658 60.804C116.998 57.32 118.168 52.9 118.168 47.544C118.168 44.112 117.648 40.992 116.608 38.184C115.62 35.376 114.112 33.14 112.084 31.476C110.056 29.812 107.612 28.98 104.752 28.98C101.892 28.98 99.4222 29.838 97.3422 31.554C95.3142 33.218 93.7802 35.454 92.7402 38.262C91.7002 41.07 91.1802 44.19 91.1802 47.622C91.1802 52.874 92.3502 57.242 94.6902 60.726C97.0822 64.21 100.436 65.952 104.752 65.952ZM160.72 75.624C155.364 75.624 150.788 74.402 146.992 71.958C143.248 69.462 140.414 66.108 138.49 61.896C136.618 57.632 135.682 52.9 135.682 47.7C135.682 42.448 136.644 37.69 138.568 33.426C140.492 29.11 143.326 25.678 147.07 23.13C150.866 20.582 155.416 19.308 160.72 19.308C166.024 19.308 170.548 20.582 174.292 23.13C178.036 25.626 180.87 29.032 182.794 33.348C184.718 37.612 185.68 42.396 185.68 47.7C185.68 52.952 184.718 57.71 182.794 61.974C180.87 66.186 178.01 69.514 174.214 71.958C170.47 74.402 165.972 75.624 160.72 75.624ZM160.72 65.952C164.984 65.952 168.286 64.236 170.626 60.804C172.966 57.32 174.136 52.9 174.136 47.544C174.136 44.112 173.616 40.992 172.576 38.184C171.588 35.376 170.08 33.14 168.052 31.476C166.024 29.812 163.58 28.98 160.72 28.98C157.86 28.98 155.39 29.838 153.31 31.554C151.282 33.218 149.748 35.454 148.708 38.262C147.668 41.07 147.148 44.19 147.148 47.622C147.148 52.874 148.318 57.242 150.658 60.726C153.05 64.21 156.404 65.952 160.72 65.952ZM210.686 55.188H203.51V75H192.746V20.4H212.948C217.316 20.4 220.982 21.232 223.946 22.896C226.91 24.56 229.094 26.718 230.498 29.37C231.902 32.022 232.604 34.908 232.604 38.028C232.604 41.616 231.668 44.866 229.796 47.778C227.924 50.638 225.09 52.692 221.294 53.94L233.618 75H222.308L210.686 55.188ZM203.51 46.374H211.31C214.326 46.374 216.874 45.75 218.954 44.502C221.086 43.202 222.152 41.044 222.152 38.028C222.152 35.012 221.112 32.906 219.032 31.71C216.952 30.462 214.378 29.838 211.31 29.838H203.51V46.374ZM259.155 75.702C254.787 75.702 251.017 74.844 247.845 73.128C244.725 71.36 242.359 69.098 240.747 66.342C239.135 63.586 238.329 60.674 238.329 57.606V57.138H250.185V57.606C250.185 58.906 250.497 60.232 251.121 61.584C251.797 62.884 252.811 63.976 254.163 64.86C255.567 65.744 257.283 66.186 259.311 66.186C261.859 66.186 263.913 65.536 265.473 64.236C267.085 62.936 267.891 61.194 267.891 59.01C267.891 57.138 267.215 55.656 265.863 54.564C264.563 53.42 262.951 52.666 261.027 52.302L254.397 50.898C250.965 50.222 247.663 48.766 244.491 46.53C241.319 44.242 239.733 40.524 239.733 35.376C239.733 32.048 240.539 29.188 242.151 26.796C243.763 24.352 245.999 22.506 248.859 21.258C251.719 19.958 254.969 19.308 258.609 19.308C262.769 19.308 266.331 20.114 269.295 21.726C272.311 23.338 274.573 25.418 276.081 27.966C277.641 30.514 278.421 33.218 278.421 36.078V36.39H266.565V36.156C266.565 34.284 265.889 32.542 264.537 30.93C263.237 29.266 261.131 28.434 258.219 28.434C255.827 28.434 253.955 29.084 252.603 30.384C251.251 31.632 250.575 33.244 250.575 35.22C250.575 37.092 251.251 38.574 252.603 39.666C254.007 40.758 255.723 41.512 257.751 41.928L264.303 43.332C268.307 44.216 271.791 45.854 274.755 48.246C277.719 50.638 279.201 54.148 279.201 58.776C279.201 62.104 278.343 65.068 276.627 67.668C274.911 70.216 272.519 72.192 269.451 73.596C266.435 75 263.003 75.702 259.155 75.702Z" fill="#333333"/>
<path d="M17.328 128.384C14.128 128.384 11.376 127.6 9.072 126.032C6.768 124.464 5.008 122.368 3.792 119.744C2.608 117.088 2.016 114.192 2.016 111.056C2.016 107.888 2.608 104.992 3.792 102.368C5.008 99.744 6.768 97.648 9.072 96.08C11.376 94.512 14.128 93.728 17.328 93.728C21.232 93.728 24.432 94.848 26.928 97.088C29.424 99.328 31.056 102.272 31.824 105.92H25.392C24.944 104.064 24 102.544 22.56 101.36C21.152 100.144 19.44 99.536 17.424 99.536C14.64 99.536 12.528 100.592 11.088 102.704C9.648 104.816 8.928 107.6 8.928 111.056C8.928 114.512 9.648 117.296 11.088 119.408C12.528 121.52 14.64 122.576 17.424 122.576C19.408 122.576 21.072 122.016 22.416 120.896C23.76 119.744 24.688 118.32 25.2 116.624H31.632C30.864 120.08 29.248 122.912 26.784 125.12C24.32 127.296 21.168 128.384 17.328 128.384ZM46.8585 115.808H42.4425V128H35.8185V94.4H48.2505C50.9385 94.4 53.1945 94.912 55.0185 95.936C56.8425 96.96 58.1865 98.288 59.0505 99.92C59.9145 101.552 60.3465 103.328 60.3465 105.248C60.3465 107.456 59.7705 109.456 58.6185 111.248C57.4665 113.008 55.7225 114.272 53.3865 115.04L60.9705 128H54.0105L46.8585 115.808ZM42.4425 110.384H47.2425C49.0985 110.384 50.6665 110 51.9465 109.232C53.2585 108.432 53.9145 107.104 53.9145 105.248C53.9145 103.392 53.2745 102.096 51.9945 101.36C50.7145 100.592 49.1305 100.208 47.2425 100.208H42.4425V110.384ZM81.7751 119.744H70.2551L67.5671 128H60.8471L72.9431 94.4H79.1831L91.2311 128H84.5111L81.7751 119.744ZM80.0951 114.608L76.1111 102.656H75.8231L71.9351 114.608H80.0951ZM101.158 100.208V108.32H114.07V113.504H101.158V128H94.4857V94.4H115.798V100.208H101.158ZM142.329 100.208H133.209V128H126.585V100.208H117.465V94.4H142.329V100.208ZM152.931 100.208V108.32H166.131V113.552H152.931V122.192H168.483V128H146.259V94.4H168.483V100.208H152.931ZM172.965 94.352H186.021C188.997 94.352 191.621 95.024 193.893 96.368C196.165 97.68 197.925 99.6 199.173 102.128C200.453 104.656 201.093 107.664 201.093 111.152C201.093 114.64 200.453 117.648 199.173 120.176C197.893 122.704 196.101 124.64 193.797 125.984C191.525 127.296 188.901 127.952 185.925 127.952H172.965V94.352ZM184.725 122C187.573 122 189.829 121.152 191.493 119.456C193.157 117.76 193.989 114.976 193.989 111.104C193.989 107.232 193.157 104.464 191.493 102.8C189.829 101.104 187.573 100.256 184.725 100.256H179.445V122H184.725ZM213.438 94.4H220.11L225.918 119.312H226.206L233.886 94.4H239.694L247.374 119.312H247.662L253.518 94.4H260.19L251.55 128.048H243.534L236.958 106.304H236.67L230.094 128.048H222.078L213.438 94.4ZM264.252 94.4H270.972V128H264.252V94.4ZM300.184 100.208H291.064V128H284.44V100.208H275.32V94.4H300.184V100.208ZM331.185 94.4V128H324.513V113.744H310.737V128H304.065V94.4H310.737V108.512H324.513V94.4H331.185ZM361.338 128.384C358.138 128.384 355.386 127.6 353.082 126.032C350.778 124.464 349.018 122.368 347.802 119.744C346.618 117.088 346.026 114.192 346.026 111.056C346.026 107.888 346.618 104.992 347.802 102.368C349.018 99.744 350.778 97.648 353.082 96.08C355.386 94.512 358.138 93.728 361.338 93.728C365.242 93.728 368.442 94.848 370.938 97.088C373.434 99.328 375.066 102.272 375.834 105.92H369.402C368.954 104.064 368.01 102.544 366.57 101.36C365.162 100.144 363.45 99.536 361.434 99.536C358.65 99.536 356.538 100.592 355.098 102.704C353.658 104.816 352.938 107.6 352.938 111.056C352.938 114.512 353.658 117.296 355.098 119.408C356.538 121.52 358.65 122.576 361.434 122.576C363.418 122.576 365.082 122.016 366.426 120.896C367.77 119.744 368.698 118.32 369.21 116.624H375.642C374.874 120.08 373.258 122.912 370.794 125.12C368.33 127.296 365.178 128.384 361.338 128.384ZM396.874 119.744H385.354L382.666 128H375.946L388.042 94.4H394.283L406.33 128H399.611L396.874 119.744ZM395.194 114.608L391.21 102.656H390.922L387.034 114.608H395.194ZM420.529 115.808H416.113V128H409.489V94.4H421.921C424.609 94.4 426.865 94.912 428.689 95.936C430.513 96.96 431.857 98.288 432.721 99.92C433.585 101.552 434.017 103.328 434.017 105.248C434.017 107.456 433.441 109.456 432.289 111.248C431.137 113.008 429.393 114.272 427.057 115.04L434.641 128H427.681L420.529 115.808ZM416.113 110.384H420.913C422.769 110.384 424.337 110 425.617 109.232C426.929 108.432 427.585 107.104 427.585 105.248C427.585 103.392 426.945 102.096 425.665 101.36C424.385 100.592 422.801 100.208 420.913 100.208H416.113V110.384ZM445.542 100.208V108.32H458.742V113.552H445.542V122.192H461.094V128H438.87V94.4H461.094V100.208H445.542Z" fill="#333333"/>
<path d="M5.99443 209.085C5.53154 209.085 5.02236 209.016 4.49004 208.9C3.07822 208.599 1.96729 207.766 1.18037 206.424C0.694336 205.591 0.347168 204.619 0.185156 203.531C0.0694336 202.767 0 202.026 0 201.263C0 199.064 0.324023 196.657 0.995215 194.042C1.80527 190.824 2.98564 187.584 4.53633 184.298C6.80449 179.46 9.48926 174.994 12.5675 170.943C14.5579 168.328 16.5946 166.106 18.6776 164.301C19.9043 163.259 21.2004 162.333 22.5659 161.57C23.8389 160.852 24.973 160.412 25.9682 160.25C26.5468 160.135 27.056 160.088 27.4726 160.088C27.8429 160.088 28.1669 160.112 28.4678 160.181C29.787 160.459 30.8054 161.176 31.4766 162.357C31.8469 163.005 32.0783 163.722 32.1709 164.486C32.2403 165.065 32.2866 165.597 32.2866 166.083C32.2866 166.662 32.2403 167.333 32.1246 168.12C32.1015 168.374 31.9163 169.277 31.5923 170.804C31.5923 170.897 31.5229 171.082 31.5229 171.152C31.5229 171.406 31.4766 171.591 31.384 171.707C31.3146 171.776 31.2683 172.031 31.1988 172.147C30.9211 172.795 30.6896 173.42 30.5045 173.998C30.4813 174.091 30.3888 174.23 30.273 174.415C30.2036 174.508 30.111 174.554 29.9953 174.554C29.787 174.554 29.6944 174.438 29.6944 174.23V173.975C29.6944 173.813 29.6481 173.674 29.5787 173.582V173.559C29.5556 173.535 29.5556 173.512 29.5556 173.489C29.5556 173.443 29.5787 173.373 29.6019 173.281C29.8796 172.471 30.2268 171.8 30.6665 171.244C30.7822 171.082 30.8748 170.851 30.9674 170.55C31.2683 169.462 31.4766 168.282 31.5691 167.009C31.5923 166.615 31.6154 166.314 31.6154 166.106C31.6154 165.111 31.4997 164.324 31.2914 163.745C31.1294 163.306 31.0137 162.982 30.898 162.773C30.2499 161.477 29.1158 160.829 27.4726 160.829C26.6625 160.829 25.8062 160.991 24.8572 161.338C23.6769 161.778 22.5196 162.403 21.3393 163.213C19.9737 164.185 18.6082 165.319 17.2658 166.638C15.4374 168.467 13.6784 170.527 12.0352 172.818C8.49404 177.771 5.62412 183.048 3.42539 188.626C2.40703 191.195 1.66641 193.717 1.20352 196.194C0.856348 197.999 0.694336 199.596 0.694336 201.008C0.694336 202.165 0.856348 203.322 1.15723 204.48C1.31924 205.105 1.59697 205.706 1.94414 206.239C2.84678 207.627 4.2123 208.322 6.01758 208.322C6.9665 208.322 7.98486 208.113 9.07266 207.697C10.0447 207.303 11.1094 206.771 12.2897 206.054C13.7247 205.151 15.2754 203.994 16.9187 202.559C18.0527 201.563 19.2563 200.429 20.5061 199.156C23.2371 196.379 26.3385 192.977 29.8333 188.927C30.3888 188.279 30.7591 187.769 30.9442 187.376L31.06 187.237C31.1525 187.144 31.3377 187.144 31.4534 187.26C31.5923 187.399 31.6154 187.561 31.546 187.723C31.4303 187.978 31.3608 188.14 31.2914 188.209L30.5045 189.204C27.4957 192.722 24.8109 195.731 22.4733 198.231C21.131 199.666 19.7886 200.985 18.4693 202.212C16.7798 203.739 15.206 205.012 13.7479 206.03C12.336 207.026 10.9474 207.789 9.58184 208.322C8.74863 208.646 7.89229 208.877 6.98965 209.016C6.66563 209.062 6.3416 209.085 5.99443 209.085ZM58.3937 194.065C57.5142 194.065 56.8661 193.671 56.4264 192.907C56.2181 192.56 56.1023 192.144 56.0561 191.704C56.0329 191.588 56.0329 191.403 56.0329 191.148C56.0329 190.755 56.1023 190.153 56.2181 189.389C56.2875 188.88 56.5421 188.001 56.9355 186.728L57.1901 186.01C57.3059 185.64 57.3984 185.362 57.4447 185.154L57.5373 184.645C57.4679 184.552 57.3984 184.552 57.2827 184.622C56.9124 184.761 56.4958 184.992 56.0329 185.316C55.0146 186.033 53.9499 186.867 52.8621 187.769L50.1773 190.084C49.5524 190.639 48.9507 191.056 48.4184 191.334C48.3026 191.403 48.2101 191.426 48.1406 191.426C48.048 191.426 47.9555 191.403 47.886 191.334C47.724 191.218 47.6546 191.056 47.7009 190.894L47.8397 190.454L48.3026 189.528C49.3441 187.283 50.0616 185.686 50.4551 184.737C50.4551 184.668 50.6171 184.367 50.6171 184.251C50.6171 184.228 50.5939 184.205 50.5708 184.136L50.1542 184.413C50.0385 184.529 49.7839 184.737 49.3904 185.061C49.0201 185.385 48.7424 185.64 48.5341 185.848L45.6873 188.811L43.3266 191.264C43.0257 191.611 42.6091 191.982 42.123 192.375C41.8222 192.607 41.5676 192.745 41.313 192.815C41.151 192.838 41.0353 192.861 40.9658 192.861C40.7575 192.861 40.5724 192.792 40.4104 192.63C40.2715 192.491 40.2021 192.329 40.2021 192.167C40.2021 192.051 40.2252 191.982 40.2483 191.912C40.4104 191.542 40.5724 191.31 40.7344 191.195C40.8038 191.148 40.8501 191.079 40.9195 190.963L43.1646 187.954C43.6969 187.237 44.4606 186.08 45.4096 184.506C45.8956 183.696 46.3354 182.816 46.7288 181.891C46.8677 181.543 46.9371 181.289 46.914 181.127H46.8214C46.6362 181.127 46.4511 181.173 46.2659 181.289L44.9235 182.076C44.0672 182.654 43.0488 183.441 41.8916 184.437L38.3505 187.561C37.6099 188.232 36.9387 188.788 36.3601 189.227C35.7583 189.69 35.1797 190.061 34.6474 190.338C34.0688 190.639 33.4901 190.824 32.9115 190.94C32.6338 190.986 32.4255 191.079 32.2635 191.241C32.1246 191.38 31.9163 191.519 31.6386 191.681C31.5229 191.75 31.3608 191.796 31.1525 191.866C31.0831 191.889 31.0137 191.889 30.8979 191.889C30.4813 191.889 30.1805 191.681 30.0185 191.287C29.949 191.102 29.9027 190.848 29.9027 190.524V190.408C29.9027 190.176 29.8564 190.014 29.7639 189.899C29.6481 189.737 29.5787 189.528 29.5787 189.297C29.5787 188.996 29.6713 188.811 29.8333 188.741C29.9953 188.672 30.111 188.556 30.1805 188.371C30.6665 187.191 31.4997 185.895 32.6338 184.46C33.0272 183.974 33.4207 183.58 33.8142 183.256C34.2771 182.886 34.6937 182.701 35.0871 182.701C35.5037 182.701 35.8046 182.886 35.9897 183.256C36.1055 183.418 36.1749 183.673 36.198 183.974C36.2212 184.437 36.1749 184.969 36.0129 185.547C35.6657 186.82 35.0871 188.001 34.2539 189.089L33.8836 189.575L33.8142 189.737C33.8373 189.76 33.8836 189.76 33.9299 189.76C33.953 189.76 34.0225 189.737 34.115 189.69C34.6474 189.436 35.1103 189.135 35.5269 188.834C36.2906 188.255 37.0313 187.654 37.7487 187.029L41.8685 183.441C42.3545 183.002 43.1414 182.4 44.1829 181.636C44.5764 181.335 45.0624 181.034 45.6642 180.71C45.9882 180.525 46.2659 180.409 46.4742 180.363C46.5899 180.34 46.752 180.317 46.9834 180.317C47.3769 180.317 47.7009 180.618 47.7009 181.011V181.15C47.7009 181.243 47.6777 181.358 47.6546 181.52C47.6314 181.636 47.5157 181.96 47.3306 182.446C47.0297 183.187 46.5668 184.089 45.9188 185.131C45.0624 186.543 44.0903 187.954 43.0257 189.366L41.4519 191.542L41.1973 191.982C41.313 191.912 41.4981 191.866 41.5213 191.843C41.637 191.773 41.961 191.496 42.4471 191.033L44.2986 189.158L47.8397 185.432C48.6035 184.668 49.2284 184.112 49.7376 183.765L50.2468 183.418L50.5477 183.233C50.6634 183.164 50.8022 183.14 50.9411 183.14C51.1031 183.14 51.2188 183.187 51.2883 183.256C51.4271 183.395 51.4966 183.557 51.4966 183.742C51.4966 183.835 51.4966 183.904 51.4734 183.95C51.404 184.112 51.2651 184.691 51.1726 184.899L49.7145 188.186C49.321 189.065 49.0664 189.575 48.997 189.713C48.9275 189.806 48.8813 189.922 48.835 190.084H48.8581C48.8813 190.107 48.8813 190.107 48.9044 190.107C48.9507 190.107 49.0201 190.061 49.1127 189.968L51.4503 187.954C52.3992 187.121 53.6953 186.126 55.2923 184.946C56.0329 184.413 56.5652 184.089 56.8661 183.974C57.2133 183.858 57.4679 183.788 57.653 183.788C58.0928 183.788 58.3242 184.043 58.3011 184.483C58.2779 184.784 58.2316 185.038 58.1622 185.293C58.0465 185.709 57.8845 186.242 57.653 186.867C57.2133 188.093 56.9355 189.227 56.8198 190.269C56.7735 190.732 56.7504 191.148 56.7735 191.542C56.7967 191.889 56.8893 192.19 57.0513 192.468C57.3522 193 57.7919 193.278 58.3474 193.278C58.4168 193.278 58.5557 193.255 58.7408 193.231C59.0417 193.162 59.3889 193.023 59.7823 192.815C60.4072 192.445 61.009 192.028 61.5413 191.542C62.7448 190.5 63.7632 189.436 64.5732 188.394L65.3602 187.376C65.4064 187.33 65.4527 187.237 65.499 187.237C65.5685 187.168 65.6379 187.144 65.7305 187.144C65.7999 187.144 65.8693 187.168 65.9156 187.214C66.1008 187.33 66.1702 187.468 66.1008 187.654L65.9619 187.908C64.8278 189.621 63.3697 191.148 61.5645 192.514C61.3562 192.676 60.847 193.023 60.0832 193.532C59.7129 193.787 59.2963 193.949 58.8334 194.018C58.6482 194.042 58.5094 194.065 58.3937 194.065ZM31.8932 190.269C32.1478 190.269 32.3561 190.153 32.5412 189.945C33.5364 188.834 34.3233 187.63 34.902 186.358C35.1565 185.779 35.3417 185.2 35.4343 184.599C35.4343 184.529 35.4574 184.367 35.4574 184.298C35.4574 184.112 35.4343 183.95 35.388 183.788C35.3186 183.511 35.1334 183.418 34.8788 183.511C34.6242 183.58 34.4622 183.696 34.3696 183.835C34.3928 184.02 34.4159 184.136 34.4159 184.182C34.4159 184.344 34.3465 184.552 34.2076 184.784C34.1845 184.853 34.0225 185.108 33.7216 185.501L32.6801 186.844C32.4486 187.121 32.2172 187.237 31.9626 187.214C31.4534 188.047 31.06 188.927 30.7822 189.875C30.9211 189.991 31.222 190.107 31.6849 190.246C31.7312 190.269 31.8006 190.269 31.8932 190.269ZM30.9674 191.125C31.0368 191.125 31.1063 191.079 31.1757 191.01L31.1294 190.963L31.1063 190.917L30.7822 190.801C30.6665 190.917 30.6896 191.01 30.8285 191.079C30.8979 191.102 30.9442 191.125 30.9674 191.125ZM52.2604 215.381C52.1215 215.381 52.0058 215.358 51.9363 215.334C51.7743 215.265 51.6355 215.103 51.5429 214.895C51.4734 214.756 51.4503 214.594 51.4503 214.409C51.4503 214.27 51.4503 214.177 51.4734 214.108C51.5892 213.575 51.728 213.066 51.89 212.603C52.2372 211.585 52.7927 210.266 53.5796 208.646C54.922 205.892 56.4032 203.068 58.0233 200.198L63.7863 190.2L64.527 188.996C64.8973 188.371 65.175 187.885 65.337 187.538C65.499 187.237 65.5453 187.029 65.5222 186.867L65.2676 186.751C65.0593 186.612 64.9898 186.427 65.0593 186.196C65.1056 186.057 65.2213 185.918 65.4065 185.756C65.7768 185.455 66.0545 185.247 66.2628 185.177C66.7257 184.992 67.096 184.645 67.3737 184.136C67.5357 183.835 67.7672 183.441 68.0912 182.955L68.7856 181.844L69.0401 181.497C69.1559 181.405 69.2484 181.358 69.3642 181.358C69.4336 181.358 69.4799 181.381 69.5493 181.405C69.7576 181.52 69.8039 181.682 69.7113 181.914C69.6419 182.122 69.5725 182.238 69.5493 182.284L68.7161 183.788L68.5541 184.112C68.6467 184.112 68.8087 184.089 68.8781 184.066C70.6603 183.65 71.6092 183.418 71.7712 183.395C72.3267 183.302 72.7433 183.256 73.021 183.256C73.183 183.256 73.4376 183.279 73.7385 183.349C73.9931 183.395 74.2245 183.464 74.4097 183.58C74.9883 183.904 75.2197 184.367 75.0809 184.969C75.0114 185.27 74.9189 185.547 74.7568 185.848C74.5023 186.381 74.1551 186.867 73.7385 187.33C73.2524 187.885 72.5581 188.556 71.6786 189.343C70.3594 190.524 68.6467 191.796 66.5405 193.208C65.6379 193.81 64.4575 194.551 62.9994 195.407C62.6985 195.592 62.444 195.708 62.2819 195.777C62.1662 195.824 62.0505 195.847 61.8885 195.847H61.8422C61.657 195.847 61.5645 195.777 61.5645 195.615V195.546C61.5645 195.407 61.6339 195.314 61.7496 195.268C62.5597 194.921 63.5549 194.366 64.1335 193.972C64.4344 193.787 64.8278 193.532 65.337 193.185L66.448 192.445C67.9061 191.496 69.3642 190.408 70.8223 189.158C72.0026 188.14 72.9053 187.191 73.5533 186.288C73.6922 186.103 73.9005 185.756 74.2014 185.223C74.3171 185.038 74.3634 184.853 74.3634 184.645V184.599C74.3634 184.437 74.2708 184.298 74.1088 184.228C73.9468 184.159 73.7848 184.112 73.6228 184.089C73.3682 184.066 73.2062 184.043 73.0904 184.043C72.7896 184.043 72.4887 184.066 72.1878 184.112C70.7065 184.344 69.3642 184.691 68.1838 185.154C67.8366 185.27 67.6052 185.455 67.4432 185.709C67.3506 185.871 66.934 186.334 66.8183 186.589C66.6794 186.867 66.4017 187.33 65.9619 188.001L65.0824 189.389C65.0593 189.459 64.9204 189.667 64.7121 190.014L64.2029 190.801L63.74 191.588L63.3466 192.213C59.8981 197.93 57.3522 202.443 55.6626 205.799C54.3434 208.414 53.4176 210.358 52.9084 211.608C52.5149 212.603 52.2604 213.367 52.1446 213.853C52.1215 214.015 52.0983 214.247 52.0983 214.548C52.0983 214.71 52.1909 214.779 52.3529 214.756L52.7695 214.686C52.8158 214.686 52.9084 214.756 53.0241 214.872C53.0473 214.895 53.0473 214.918 53.0473 214.941C53.0473 215.034 53.001 215.103 52.9315 215.149C52.7001 215.311 52.4687 215.381 52.2604 215.381ZM71.8175 199.689C71.586 199.689 71.4703 199.573 71.4472 199.342V199.295C71.4472 199.064 71.4703 198.902 71.5166 198.786C71.6323 198.485 71.8869 197.745 72.0026 197.467C73.021 195.037 74.4328 191.982 76.2612 188.348L76.539 187.792C76.5158 187.792 76.4927 187.792 76.4695 187.769L76.1918 188.07C76.0992 188.163 75.9835 188.232 75.8678 188.232C75.7983 188.232 75.7058 188.186 75.6132 188.093C75.59 188.07 75.5669 187.978 75.5669 187.862C75.5669 187.468 75.6826 187.237 75.8909 187.191C76.0298 187.168 76.1918 187.052 76.3538 186.844L78.2748 184.483C78.3674 184.39 78.5525 184.112 78.622 183.997C80.7281 180.294 83.0194 176.567 85.4728 172.818L89.7545 166.337C90.8423 164.741 91.8838 163.375 92.9253 162.241C93.1799 161.963 93.9205 161.292 94.1982 160.945C94.314 160.829 94.476 160.69 94.7306 160.575C94.8 160.551 94.8463 160.528 94.9157 160.528C95.124 160.528 95.3323 160.69 95.3323 160.945C95.3323 161.107 95.3092 161.246 95.2629 161.361L94.8694 162.38C94.4991 163.213 94.0131 164.116 93.3882 165.065C92.6707 166.199 91.6755 167.634 90.4025 169.393L79.3626 184.182C78.9923 184.668 78.5757 185.293 78.1359 186.08C76.1687 189.482 74.3865 193.231 72.7433 197.328C72.4424 198.046 72.2804 198.508 72.2109 198.694C72.1647 198.832 72.1415 199.041 72.1415 199.295V199.388C72.1415 199.596 72.0489 199.689 71.8406 199.689H71.8175ZM81.8159 179.784L82.3945 179.113C83.4592 177.794 84.9173 175.85 86.7457 173.304C88.5741 170.758 89.7545 169.138 90.2637 168.467C91.2357 167.171 92.0921 165.944 92.8096 164.764L93.5965 163.514C93.7816 163.167 94.0825 162.658 94.2445 162.218L94.4528 161.709C94.3603 161.732 94.2908 161.755 94.2214 161.824L93.365 162.727C92.4624 163.722 91.4209 165.088 90.2405 166.824L84.8247 174.97L83.6212 176.915C83.0657 177.817 82.626 178.488 82.302 178.974L81.8159 179.784ZM85.7273 182.631C85.8199 182.261 85.9356 181.983 86.0745 181.775C86.1902 181.636 86.3291 181.543 86.4911 181.52C86.792 181.497 87.0234 181.821 86.9077 182.076C86.7689 182.4 86.5606 182.701 86.2597 183.002C86.0051 183.256 85.6348 183.002 85.7273 182.631ZM84.0841 190.686C83.7369 190.686 83.436 190.639 83.2046 190.57C82.4871 190.338 82.1399 189.852 82.1399 189.089C82.1399 188.857 82.2094 188.533 82.3251 188.14C82.3945 187.954 82.4871 187.7 82.6491 187.353C82.7648 187.075 82.9963 186.682 83.3435 186.196L83.8989 185.362C83.9452 185.293 84.0378 185.177 84.1535 185.061C84.223 184.992 84.3155 184.946 84.4313 184.946C84.5007 184.946 84.5933 185.015 84.6164 185.015C84.709 185.038 84.7553 185.108 84.7553 185.247C84.7553 185.316 84.7321 185.385 84.6858 185.478L84.6164 185.594L84.0841 186.45L84.0378 186.52C83.7369 186.797 83.4129 187.33 83.0889 188.14C82.95 188.487 82.8806 188.811 82.8806 189.112C82.8806 189.644 83.1352 189.922 83.6212 189.922C83.7138 189.922 83.9915 189.945 84.1072 189.945C84.5007 189.945 84.8479 189.899 85.1719 189.783C85.7042 189.621 86.2134 189.436 86.6763 189.227C87.0929 189.042 87.6715 188.765 88.389 188.371C89.1296 187.978 89.5925 187.723 89.7545 187.654C89.9859 187.538 90.148 187.422 90.2637 187.26C90.3563 187.144 90.4488 187.098 90.5414 187.098C90.5646 187.098 90.6571 187.121 90.7729 187.191C90.8654 187.237 90.9117 187.353 90.9117 187.515C90.9117 187.63 90.9117 187.677 90.8886 187.7C90.8191 187.816 90.7729 187.885 90.7034 187.908L90.3563 188.163L89.037 188.88C88.4584 189.181 87.9492 189.459 87.4632 189.69C87.0003 189.922 86.5606 190.107 86.1208 190.246C85.4959 190.454 85.0793 190.57 84.8479 190.593L84.0841 190.686ZM102.97 193C102.507 193 102.16 192.792 101.905 192.375C101.697 192.051 101.581 191.634 101.535 191.125C101.512 190.824 101.489 190.593 101.489 190.477C101.489 189.968 101.558 189.436 101.674 188.857L102.137 186.89C102.206 186.496 102.253 186.265 102.253 186.196V186.149C102.253 186.126 102.229 185.987 102.229 185.918L101.952 186.01C101.743 186.103 101.396 186.334 101.188 186.496C100.841 186.751 100.378 187.121 99.7529 187.63L98.48 188.649L97.5542 189.413C97.0219 189.829 96.6284 190.13 96.3275 190.338C96.1424 190.454 95.5869 190.732 95.4018 190.894C95.2397 191.01 95.0546 191.056 94.8463 191.056C94.4528 191.056 94.2445 190.894 94.2445 190.547V190.454C94.2445 190.292 94.2677 190.153 94.2908 190.084C94.3603 189.899 94.476 189.459 94.5686 189.274L96.0961 186.01L96.6284 184.807L96.721 184.506C96.6979 184.483 96.6516 184.483 96.6053 184.483C96.5821 184.483 96.5358 184.506 96.4433 184.552C95.8878 184.83 95.3786 185.177 94.8926 185.617C93.9899 186.381 93.4808 186.844 93.3188 187.006L89.7082 190.547L88.8287 191.426C88.3658 191.866 87.9955 192.213 87.7178 192.445C87.6252 192.514 87.4863 192.63 87.3012 192.745C87.2549 192.769 87.1855 192.815 87.0929 192.838C87.0697 192.861 87.0234 192.861 86.9772 192.861C86.7457 192.861 86.63 192.745 86.63 192.514C86.63 192.445 86.6994 192.283 86.8614 192.051C86.954 191.912 87.0929 191.704 87.3012 191.449C87.5095 191.195 87.6252 191.033 87.6483 190.986C88.6898 189.575 90.0091 187.584 91.6061 185.038C91.7218 184.83 92.0227 184.367 92.5087 183.603L93.6196 181.844L93.8742 181.497L94.1288 181.289C94.2445 181.173 94.5223 181.173 94.6148 181.243C94.7537 181.312 94.8231 181.451 94.8231 181.636C94.8231 181.752 94.8 181.914 94.7537 182.076C94.638 182.516 94.4297 182.886 94.1751 183.21C93.8742 183.58 93.5965 183.58 93.5039 183.765L93.2956 184.136C92.9947 184.691 92.4855 185.455 91.7681 186.45C91.0737 187.445 90.5877 188.186 90.2868 188.672L90.0785 189.019C90.1017 189.042 90.1248 189.065 90.148 189.065L90.472 188.741C90.9117 188.302 91.8838 187.376 93.4345 185.941C94.1057 185.316 94.8463 184.737 95.6332 184.228C95.9341 184.02 96.2581 183.881 96.559 183.765C96.6979 183.719 96.8367 183.696 96.9756 183.696C97.2996 183.696 97.4616 183.858 97.4616 184.159V184.228C97.4616 184.39 97.4385 184.552 97.3922 184.714C97.3228 184.969 97.1607 185.362 96.9062 185.848L95.4943 188.834L95.0546 189.922C95.0314 190.014 94.9852 190.2 94.9852 190.223C95.0546 190.292 95.124 190.292 95.2166 190.223C95.3323 190.153 95.9109 189.806 96.1192 189.621C97.045 188.834 97.9939 188.07 98.966 187.33L101.049 185.733C101.211 185.617 101.674 185.385 101.79 185.293C101.905 185.223 102.067 185.177 102.253 185.177C102.646 185.177 102.877 185.362 102.947 185.756C102.97 185.825 102.97 185.941 102.97 186.103C102.97 186.311 102.947 186.52 102.901 186.728C102.854 186.959 102.785 187.306 102.669 187.746C102.553 188.186 102.484 188.533 102.438 188.765C102.276 189.459 102.206 189.875 102.206 190.014C102.206 190.13 102.183 190.431 102.183 190.547C102.183 190.824 102.229 191.125 102.299 191.426C102.322 191.588 102.415 191.796 102.53 192.028C102.715 192.398 103.155 192.352 103.595 192.144C103.965 191.958 104.266 191.796 104.498 191.634C105.238 191.148 105.933 190.57 106.581 189.922L109.034 187.353L109.196 187.191C109.312 187.075 109.45 187.052 109.589 187.168C109.728 187.283 109.775 187.422 109.728 187.584C109.705 187.63 109.682 187.7 109.613 187.792L109.381 188.07L106.696 190.755C106.025 191.426 105.354 191.958 104.706 192.352C104.312 192.607 103.942 192.769 103.618 192.884C103.387 192.954 103.178 193 102.97 193ZM111.14 191.658C110.77 191.658 110.423 191.611 110.075 191.519C109.057 191.241 108.455 190.477 108.455 189.459C108.455 188.903 108.617 188.302 108.941 187.654C109.427 186.705 110.099 185.895 110.955 185.247C111.163 185.085 111.371 184.992 111.534 184.923C111.626 184.899 111.696 184.876 111.765 184.876C112.089 184.876 112.251 185.061 112.251 185.409C112.251 185.64 112.182 185.871 112.066 186.08C111.487 187.121 110.677 187.885 109.613 188.371L109.312 188.51C109.196 188.788 109.15 189.089 109.15 189.389C109.15 190.037 109.427 190.5 109.96 190.755C110.145 190.848 110.399 190.917 110.723 190.94C111.464 191.01 112.228 190.894 112.992 190.593C114.866 189.875 116.486 188.857 117.898 187.538L118.176 187.214C118.245 187.121 118.338 187.075 118.454 187.075C118.523 187.075 118.593 187.098 118.662 187.144C118.778 187.237 118.824 187.33 118.824 187.445C118.824 187.515 118.801 187.584 118.755 187.654C118.639 187.839 118.5 187.978 118.384 188.07C116.834 189.366 115.329 190.338 113.871 191.01C113.339 191.264 112.806 191.426 112.274 191.542C111.858 191.611 111.487 191.658 111.14 191.658ZM110.006 187.283C110.446 187.098 111.047 186.45 111.302 185.918C110.909 186.126 110.261 186.844 110.006 187.283ZM115.445 193.463C115.237 193.463 115.19 193.185 115.005 193C114.982 192.977 114.982 192.977 114.982 192.954C114.982 192.838 115.005 192.722 115.051 192.63C115.144 192.468 115.306 191.912 115.422 191.704C116.047 190.524 116.44 189.829 116.579 189.598C116.88 189.112 118.222 187.168 120.56 183.765C120.838 183.372 121.069 183.071 121.254 182.886L121.671 182.585C121.74 182.539 121.81 182.516 121.879 182.516C122.134 182.516 122.319 182.724 122.319 182.978C122.319 183.187 122.226 183.418 122.064 183.673L121.416 184.691L120.606 185.941L120.282 186.358C120.097 186.612 119.958 186.797 119.889 186.936L119.796 187.098C119.704 187.237 119.565 187.306 119.403 187.306C119.356 187.306 119.287 187.283 119.194 187.26C118.153 188.672 117.088 190.292 116 192.121C115.885 192.306 115.838 192.445 115.862 192.537C115.954 192.491 116.093 192.398 116.278 192.259C116.625 192.005 117.088 191.588 117.667 191.056C118.245 190.5 118.593 190.176 118.685 190.107C119.055 189.783 119.588 189.297 120.259 188.649C120.93 188.001 121.439 187.538 121.763 187.237C121.879 187.121 122.111 186.959 122.435 186.705C122.759 186.45 122.99 186.242 123.152 186.08C123.314 185.918 123.708 185.686 123.8 185.617C123.87 185.547 124.124 185.524 124.194 185.455C124.217 185.432 124.24 185.432 124.309 185.432C124.61 185.432 124.749 185.571 124.749 185.871C124.749 185.987 124.726 186.149 124.656 186.358C124.633 186.473 124.564 186.682 124.448 187.006C124.332 187.306 124.263 187.561 124.217 187.723C124.124 188.07 124.008 188.603 123.846 189.32C123.8 189.528 123.777 189.737 123.777 189.945C123.777 190.94 124.17 191.426 124.957 191.426C125.304 191.426 125.629 191.334 125.976 191.172C126.415 190.963 126.832 190.662 127.249 190.292C128.36 189.297 129.378 188.348 130.281 187.445L130.512 187.214C130.581 187.168 130.651 187.144 130.697 187.144C130.813 187.144 130.882 187.168 130.929 187.214C131.067 187.353 131.091 187.492 131.021 187.607L130.72 188.024C129.725 189.019 128.776 189.899 127.92 190.639C127.712 190.824 127.133 191.241 126.971 191.357C126.67 191.611 126.3 191.796 125.906 191.935C125.513 192.074 125.189 192.144 124.934 192.144C124.772 192.144 124.68 192.144 124.61 192.121C123.708 191.912 123.221 191.38 123.129 190.57C123.106 190.431 123.106 190.246 123.106 189.991C123.106 189.69 123.129 189.389 123.175 189.112C123.221 188.811 123.407 188.093 123.754 186.959L123.893 186.473L123.823 186.404L123.337 186.797C122.967 187.098 121.74 188.209 119.634 190.153C118.269 191.403 117.32 192.259 116.764 192.699C116.463 192.954 116.209 193.116 116.047 193.231C115.908 193.324 115.769 193.393 115.63 193.44C115.584 193.463 115.514 193.463 115.445 193.463ZM164.997 164.741C165.206 164.764 165.298 164.879 165.298 165.065V165.088C165.298 165.25 165.206 165.365 165.044 165.435L164.766 165.527C164.326 165.689 163.678 165.759 162.845 165.759C162.104 165.759 162.174 165.736 161.942 165.296H161.526C160.831 165.296 159.79 165.319 158.401 165.342L148.472 165.574C147.685 165.574 146.204 165.643 145.417 165.643H145.093L144.908 165.875C144.376 166.662 142.431 169.416 139.075 174.114C138.844 174.438 138.474 174.994 137.965 175.804C137.479 176.591 137.062 177.192 136.761 177.586C136.576 177.84 136.275 178.303 135.882 179.021C135.534 179.669 134.655 181.196 133.266 183.626C131.901 186.057 130.79 188.047 129.957 189.621C129.123 191.195 128.336 192.792 127.596 194.389C127.388 194.875 126.878 195.893 126.115 197.444C125.328 198.994 124.749 200.221 124.402 201.101L123.985 202.142C123.939 202.281 123.846 202.35 123.708 202.35C123.522 202.35 123.43 202.258 123.43 202.073C123.43 201.957 123.476 201.772 123.569 201.563L124.356 199.874C126.485 195.291 128.128 191.866 129.309 189.621C130.095 188.117 132.04 184.645 135.118 179.183L135.997 177.586C136.252 177.1 136.53 176.591 136.877 176.081C137.386 175.318 138.196 173.998 139.33 172.124L142.894 166.175C142.917 166.106 143.103 165.898 143.195 165.736C143.079 165.736 142.987 165.689 142.964 165.689L139.608 165.782C139.33 165.782 138.913 165.805 138.381 165.828L137.178 165.898L134.123 166.013C133.868 166.013 133.428 166.037 132.803 166.083C132.202 166.129 131.739 166.152 131.415 166.152C131.229 166.152 130.72 166.199 130.512 166.199C130.095 166.199 129.471 166.222 128.614 166.245C127.758 166.268 127.133 166.268 126.693 166.268C126.392 166.268 126.068 166.245 125.767 166.199C125.443 166.129 125.281 165.99 125.281 165.736V165.62C125.281 165.412 125.397 165.25 125.629 165.157C125.929 165.041 126.184 164.995 126.439 164.995C126.693 164.995 127.225 165.065 127.434 165.065C127.526 165.065 127.596 165.088 127.619 165.111C127.712 165.203 127.943 165.25 128.29 165.25L132.873 165.111C132.942 165.111 133.081 165.088 133.15 165.088C134.285 165.088 135.951 165.065 138.196 164.995C140.441 164.926 142.107 164.879 143.242 164.879H143.728C143.797 164.81 143.89 164.648 144.005 164.393C144.306 163.768 144.838 162.958 145.579 161.917C146.343 160.875 146.829 160.181 147.06 159.811C147.176 159.649 147.338 159.394 147.593 159.07C147.847 158.746 148.009 158.515 148.102 158.376C148.171 158.283 148.356 158.098 148.426 158.029C148.449 157.959 148.518 157.913 148.634 157.843C148.727 157.797 148.796 157.774 148.866 157.774C148.935 157.774 149.028 157.797 149.097 157.867C149.19 157.936 149.236 158.029 149.236 158.191C149.236 158.329 149.19 158.492 149.12 158.7C149.051 158.908 148.912 159.186 148.727 159.533C148.403 160.112 147.917 160.945 147.269 162.033L145.903 164.37L145.672 164.787C145.695 164.856 145.764 164.879 145.88 164.879L149.514 164.81H150.555C151.041 164.81 151.388 164.81 151.62 164.787L155.716 164.717C156.202 164.694 156.92 164.694 157.823 164.671L160.322 164.602C161.086 164.579 161.78 164.579 162.451 164.579C163.586 164.579 164.257 164.602 164.465 164.625C164.581 164.625 164.882 164.717 164.997 164.741ZM145.024 164.532C145.186 164.231 145.556 163.63 146.135 162.727C146.713 161.824 147.153 161.107 147.431 160.598V160.551L147.454 160.528V160.459H147.408V160.505L147.431 160.598H147.315L147.199 160.783L144.607 164.717L144.538 164.903L144.838 164.81L145.024 164.532ZM144.098 165.898L144.19 165.689H144.005C143.959 165.736 143.913 165.828 143.843 165.944L142.848 167.472L142.894 167.495H142.941C143.01 167.495 143.056 167.448 143.079 167.379L144.098 165.898ZM141.436 190.963C140.649 190.963 140.094 190.616 139.793 189.945C139.585 189.505 139.492 189.065 139.492 188.672V187.792C139.307 187.607 139.214 187.468 139.214 187.353C139.214 187.33 139.238 187.237 139.261 187.075C139.284 186.89 139.492 186.334 139.515 186.172L139.261 186.404C139.145 186.52 138.659 187.098 137.756 188.163C137.34 188.649 136.946 189.089 136.553 189.482C136.344 189.69 135.743 190.153 135.581 190.269C135.442 190.385 135.234 190.5 134.956 190.57C134.909 190.593 134.84 190.593 134.724 190.593C134.123 190.593 133.937 189.945 134.261 189.135C134.562 188.325 135.002 187.538 135.558 186.728C135.997 186.103 136.553 185.501 137.27 184.899C137.617 184.599 137.988 184.344 138.381 184.182L139.052 183.974C139.214 183.95 139.307 183.927 139.353 183.927C139.677 183.927 139.932 184.02 140.094 184.182L140.186 184.275L140.233 184.298L140.51 184.159C140.534 184.136 140.58 184.136 140.626 184.136C140.858 184.136 140.973 184.251 140.973 184.483C140.973 184.599 140.95 184.737 140.881 184.923C140.742 185.316 140.58 185.871 140.418 186.543C140.279 187.144 140.21 187.839 140.21 188.649C140.21 188.973 140.256 189.274 140.372 189.551C140.58 190.037 140.927 190.269 141.459 190.269C141.853 190.269 142.177 190.2 142.408 190.084L143.218 189.667C144.028 189.204 144.815 188.579 145.625 187.769C145.787 187.607 145.834 187.468 145.811 187.353C145.672 187.353 145.949 187.168 145.996 187.121C146.019 187.098 146.088 187.075 146.158 187.075C146.366 187.075 146.574 187.26 146.574 187.468C146.574 187.607 146.528 187.723 146.459 187.839C146.343 188.001 146.25 188.093 146.181 188.163C145.556 188.765 144.746 189.413 143.728 190.13C143.056 190.616 142.455 190.871 141.969 190.917C141.714 190.94 141.552 190.963 141.436 190.963ZM134.817 189.899C134.863 189.899 134.909 189.875 134.979 189.852C135.118 189.783 135.303 189.667 135.558 189.482C135.812 189.274 136.182 188.927 136.622 188.441C136.83 188.186 137.178 187.862 137.617 187.422C138.08 186.982 138.474 186.566 138.798 186.172C139.145 185.779 139.4 185.385 139.608 184.992C139.654 184.899 139.677 184.83 139.654 184.784C139.631 184.691 139.562 184.645 139.446 184.645C139.376 184.645 139.191 184.691 138.937 184.761C138.775 184.807 138.543 184.923 138.265 185.085C137.965 185.27 137.641 185.524 137.293 185.871C136.344 186.82 135.673 187.7 135.257 188.533C135.071 188.903 134.933 189.227 134.84 189.505C134.771 189.69 134.794 189.806 134.817 189.899ZM156.966 184.367C157.013 184.668 156.966 184.946 156.85 185.2C156.758 185.362 156.619 185.455 156.457 185.478C156.249 185.478 156.11 185.27 156.133 185.061C156.133 184.992 156.226 184.946 156.226 184.876C156.249 184.761 156.272 184.668 156.272 184.599C156.295 184.344 156.156 184.182 155.902 184.112C155.763 184.043 155.601 184.02 155.416 184.043C154.906 184.043 154.328 184.136 153.703 184.344C153.008 184.575 152.222 184.946 151.342 185.432C148.148 187.283 145.579 189.505 143.658 192.121L143.334 192.514C143.311 192.583 143.218 192.63 143.103 192.699C142.894 192.769 142.686 192.63 142.663 192.421C142.663 192.329 142.686 192.213 142.755 192.097C142.871 191.889 142.987 191.727 143.079 191.611L146.482 186.219C146.551 186.149 146.621 186.01 146.644 185.941L147.13 185.108C147.246 184.923 147.431 184.668 147.685 184.344L148.148 183.742C148.241 183.626 148.31 183.534 148.38 183.488C148.518 183.372 148.68 183.372 148.842 183.441C149.004 183.557 149.051 183.719 149.004 183.881C148.935 184.089 148.866 184.251 148.819 184.321L147.708 185.918C147.593 186.08 147.523 186.196 147.5 186.311L147.408 186.496C146.921 187.121 146.459 187.746 146.019 188.371L145.996 188.394L145.973 188.441L146.019 188.487C146.158 188.371 146.25 188.302 146.297 188.232C148.009 186.751 149.699 185.571 151.365 184.691C152.36 184.159 153.194 183.788 153.888 183.603C154.582 183.441 155.161 183.349 155.601 183.372C155.763 183.372 155.971 183.418 156.249 183.511C156.642 183.65 156.897 183.927 156.966 184.367ZM139.353 221.167C138.589 221.167 138.103 220.773 137.918 219.987C137.826 219.593 137.803 219.176 137.849 218.783C137.965 217.765 138.265 216.723 138.705 215.682C139.284 214.339 139.978 213.043 140.788 211.77C141.922 209.988 143.288 208.206 144.862 206.424C147.57 203.346 150.393 200.522 153.286 197.999C155.832 195.8 158.332 193.926 160.808 192.329C161.109 192.144 161.341 191.889 161.503 191.542C163.516 187.538 164.72 185.108 165.09 184.228L165.229 183.904C165.206 183.881 165.159 183.881 165.136 183.904C165.113 183.927 165.113 183.927 165.09 183.927L164.974 184.02C164.257 184.737 163.215 185.617 162.637 186.103L161.294 187.191L160.091 188.14L157.892 189.852C157.406 190.2 157.013 190.477 156.665 190.639C156.457 190.755 156.249 190.801 156.064 190.801C155.647 190.801 155.439 190.593 155.439 190.2C155.439 190.037 155.485 189.852 155.578 189.598C155.74 189.227 155.855 188.95 155.948 188.788C156.388 187.978 156.897 187.191 157.429 186.473L159.234 184.043C159.558 183.603 159.859 183.279 160.114 183.117C160.623 182.77 161.109 182.978 161.109 183.372V183.488C161.109 183.673 161.086 183.835 161.017 183.974C160.762 184.599 160.392 185.177 159.952 185.663C159.79 185.848 159.628 185.941 159.489 185.941C159.466 185.941 159.35 185.918 159.142 185.895C159.026 186.033 158.841 186.288 158.54 186.635C158.239 186.982 158.031 187.26 157.869 187.468L157.313 188.209C156.874 188.788 156.526 189.389 156.249 189.968L156.503 189.875C156.966 189.598 157.313 189.366 157.522 189.204L160.716 186.682C162.914 184.899 164.326 183.696 164.997 183.025L165.46 182.631C165.669 182.423 165.854 182.33 166.039 182.33C166.155 182.33 166.224 182.354 166.293 182.423C166.409 182.539 166.479 182.678 166.479 182.793C166.479 182.932 166.409 183.164 166.27 183.464L165.692 184.668C165.321 185.432 164.789 186.52 164.072 187.908L162.66 190.709C162.59 190.801 162.521 190.963 162.428 191.172L162.498 191.241L162.938 190.963L169.464 187.353C169.626 187.26 169.904 187.144 170.274 186.982C170.39 186.936 170.506 186.913 170.598 186.936C170.737 186.959 170.83 187.052 170.876 187.168V187.237C170.876 187.353 170.83 187.445 170.737 187.515L170.506 187.654C169.927 187.908 169.487 188.093 169.21 188.232C166.525 189.575 164.187 190.894 162.197 192.167C161.942 192.329 161.757 192.537 161.618 192.815C159.813 196.425 158.494 198.994 157.661 200.522C155.184 205.058 152.546 208.993 149.768 212.349C148.31 214.108 146.759 215.797 145.139 217.394C144.005 218.482 143.01 219.338 142.131 219.94L140.765 220.773C140.464 220.935 140.117 221.074 139.7 221.144C139.631 221.167 139.515 221.167 139.353 221.167ZM139.376 220.473C139.816 220.473 140.325 220.287 140.95 219.94C141.668 219.524 142.385 218.991 143.149 218.366C144.607 217.14 146.065 215.705 147.546 214.015C150.717 210.428 153.495 206.54 155.925 202.327C157.013 200.406 158.563 197.49 160.53 193.532L160.6 193.324C160.6 193.301 160.577 193.278 160.554 193.255L160.276 193.44C158.517 194.62 156.665 196.009 154.721 197.606C152.615 199.342 150.439 201.378 148.194 203.716C146.204 205.822 144.561 207.72 143.242 209.456C141.969 211.145 140.858 212.904 139.932 214.686C139.33 215.867 138.913 216.955 138.705 217.95C138.589 218.436 138.543 218.852 138.543 219.176C138.543 220.033 138.821 220.473 139.376 220.473ZM190.503 209.085C190.04 209.085 189.531 209.016 188.998 208.9C187.586 208.599 186.475 207.766 185.689 206.424C185.203 205.591 184.855 204.619 184.693 203.531C184.578 202.767 184.508 202.026 184.508 201.263C184.508 199.064 184.832 196.657 185.503 194.042C186.313 190.824 187.494 187.584 189.045 184.298C191.313 179.46 193.997 174.994 197.076 170.943C199.066 168.328 201.103 166.106 203.186 164.301C204.413 163.259 205.709 162.333 207.074 161.57C208.347 160.852 209.481 160.412 210.476 160.25C211.055 160.135 211.564 160.088 211.981 160.088C212.351 160.088 212.675 160.112 212.976 160.181C214.295 160.459 215.314 161.176 215.985 162.357C216.355 163.005 216.587 163.722 216.679 164.486C216.749 165.065 216.795 165.597 216.795 166.083C216.795 166.662 216.749 167.333 216.633 168.12C216.61 168.374 216.425 169.277 216.1 170.804C216.1 170.897 216.031 171.082 216.031 171.152C216.031 171.406 215.985 171.591 215.892 171.707C215.823 171.776 215.776 172.031 215.707 172.147C215.429 172.795 215.198 173.42 215.013 173.998C214.99 174.091 214.897 174.23 214.781 174.415C214.712 174.508 214.619 174.554 214.504 174.554C214.295 174.554 214.203 174.438 214.203 174.23V173.975C214.203 173.813 214.156 173.674 214.087 173.582V173.559C214.064 173.535 214.064 173.512 214.064 173.489C214.064 173.443 214.087 173.373 214.11 173.281C214.388 172.471 214.735 171.8 215.175 171.244C215.29 171.082 215.383 170.851 215.476 170.55C215.776 169.462 215.985 168.282 216.077 167.009C216.1 166.615 216.124 166.314 216.124 166.106C216.124 165.111 216.008 164.324 215.8 163.745C215.638 163.306 215.522 162.982 215.406 162.773C214.758 161.477 213.624 160.829 211.981 160.829C211.171 160.829 210.314 160.991 209.365 161.338C208.185 161.778 207.028 162.403 205.847 163.213C204.482 164.185 203.116 165.319 201.774 166.638C199.946 168.467 198.187 170.527 196.543 172.818C193.002 177.771 190.132 183.048 187.934 188.626C186.915 191.195 186.175 193.717 185.712 196.194C185.365 197.999 185.203 199.596 185.203 201.008C185.203 202.165 185.365 203.322 185.665 204.48C185.827 205.105 186.105 205.706 186.452 206.239C187.355 207.627 188.721 208.322 190.526 208.322C191.475 208.322 192.493 208.113 193.581 207.697C194.553 207.303 195.618 206.771 196.798 206.054C198.233 205.151 199.784 203.994 201.427 202.559C202.561 201.563 203.764 200.429 205.014 199.156C207.745 196.379 210.847 192.977 214.342 188.927C214.897 188.279 215.267 187.769 215.452 187.376L215.568 187.237C215.661 187.144 215.846 187.144 215.962 187.26C216.1 187.399 216.124 187.561 216.054 187.723C215.938 187.978 215.869 188.14 215.8 188.209L215.013 189.204C212.004 192.722 209.319 195.731 206.982 198.231C205.639 199.666 204.297 200.985 202.978 202.212C201.288 203.739 199.714 205.012 198.256 206.03C196.844 207.026 195.456 207.789 194.09 208.322C193.257 208.646 192.4 208.877 191.498 209.016C191.174 209.062 190.85 209.085 190.503 209.085ZM216.309 191.334C216.239 191.334 216.147 191.31 215.985 191.287C215.267 191.125 214.897 190.593 214.897 189.69C214.897 189.505 214.92 189.251 214.99 188.903C215.337 186.982 216.355 185.385 218.021 184.136C218.438 183.812 218.947 183.557 219.526 183.395C219.688 183.349 219.85 183.326 220.012 183.326C220.822 183.326 221.285 183.788 221.285 184.46C221.285 184.83 221.239 185.108 221.146 185.316C220.961 185.756 220.822 186.057 220.706 186.242C219.873 187.654 218.808 188.95 217.535 190.084C217.373 190.246 216.864 190.616 216.702 190.732L216.818 190.848C216.887 190.917 216.911 190.963 216.911 191.033C216.911 191.148 216.841 191.218 216.725 191.264C216.61 191.31 216.471 191.334 216.309 191.334ZM216.263 190.084L216.378 190.037C216.448 190.014 216.633 189.875 216.98 189.621C218.16 188.741 219.202 187.445 220.151 185.733C220.336 185.385 220.452 185.131 220.475 184.946C220.521 184.668 220.544 184.529 220.544 184.506V184.437C220.544 184.182 220.405 184.066 220.151 184.066C219.942 184.066 219.688 184.112 219.387 184.228C219.156 184.321 218.832 184.506 218.438 184.784C217.906 185.131 217.512 185.524 217.119 186.172L216.679 186.89C216.587 187.052 216.425 187.353 216.216 187.816L215.823 188.626C215.823 188.672 215.8 188.741 215.8 188.834L216.286 188.047C216.401 187.862 216.587 187.607 216.887 187.283C217.188 186.959 217.373 186.705 217.489 186.52C217.651 186.242 217.975 186.172 218.137 186.172C218.392 186.172 218.531 186.288 218.531 186.543C218.531 186.751 218.438 186.936 218.276 187.098L217.605 187.792C217.42 187.978 217.304 188.093 217.281 188.163C216.98 188.579 216.633 189.135 216.286 189.852C216.239 189.968 216.239 190.061 216.263 190.084ZM221.123 193.463C220.915 193.463 220.868 193.185 220.683 193C220.66 192.977 220.66 192.977 220.66 192.954C220.66 192.838 220.683 192.722 220.729 192.63C220.822 192.468 220.984 191.912 221.1 191.704C221.725 190.524 222.118 189.829 222.257 189.598C222.558 189.112 223.9 187.168 226.238 183.765C226.516 183.372 226.747 183.071 226.932 182.886L227.349 182.585C227.418 182.539 227.488 182.516 227.557 182.516C227.812 182.516 227.997 182.724 227.997 182.978C227.997 183.187 227.904 183.418 227.742 183.673L227.094 184.691L226.284 185.941L225.96 186.358C225.775 186.612 225.636 186.797 225.567 186.936L225.474 187.098C225.381 187.237 225.243 187.306 225.081 187.306C225.034 187.306 224.965 187.283 224.872 187.26C223.831 188.672 222.766 190.292 221.678 192.121C221.563 192.306 221.516 192.445 221.539 192.537C221.632 192.491 221.771 192.398 221.956 192.259C222.303 192.005 222.766 191.588 223.345 191.056C223.923 190.5 224.271 190.176 224.363 190.107C224.733 189.783 225.266 189.297 225.937 188.649C226.608 188.001 227.117 187.538 227.441 187.237C227.557 187.121 227.788 186.959 228.113 186.705C228.437 186.45 228.668 186.242 228.83 186.08C228.992 185.918 229.385 185.686 229.478 185.617C229.547 185.547 229.802 185.524 229.871 185.455C229.895 185.432 229.918 185.432 229.987 185.432C230.288 185.432 230.427 185.571 230.427 185.871C230.427 185.987 230.404 186.149 230.334 186.358C230.311 186.473 230.242 186.682 230.126 187.006C230.01 187.306 229.941 187.561 229.895 187.723C229.802 188.07 229.686 188.603 229.524 189.32C229.478 189.528 229.455 189.737 229.455 189.945C229.455 190.94 229.848 191.426 230.635 191.426C230.982 191.426 231.306 191.334 231.654 191.172C232.093 190.963 232.51 190.662 232.927 190.292C234.038 189.297 235.056 188.348 235.959 187.445L236.19 187.214C236.259 187.168 236.329 187.144 236.375 187.144C236.491 187.144 236.56 187.168 236.607 187.214C236.745 187.353 236.769 187.492 236.699 187.607L236.398 188.024C235.403 189.019 234.454 189.899 233.598 190.639C233.389 190.824 232.811 191.241 232.649 191.357C232.348 191.611 231.978 191.796 231.584 191.935C231.191 192.074 230.867 192.144 230.612 192.144C230.45 192.144 230.358 192.144 230.288 192.121C229.385 191.912 228.899 191.38 228.807 190.57C228.784 190.431 228.784 190.246 228.784 189.991C228.784 189.69 228.807 189.389 228.853 189.112C228.899 188.811 229.085 188.093 229.432 186.959L229.571 186.473L229.501 186.404L229.015 186.797C228.645 187.098 227.418 188.209 225.312 190.153C223.946 191.403 222.998 192.259 222.442 192.699C222.141 192.954 221.887 193.116 221.725 193.231C221.586 193.324 221.447 193.393 221.308 193.44C221.262 193.463 221.192 193.463 221.123 193.463ZM230.172 199.457C229.316 199.457 228.784 198.994 228.784 198.254C228.784 197.907 228.876 197.536 229.085 197.166C229.385 196.587 229.709 196.148 230.057 195.8C230.867 194.99 231.7 194.296 232.579 193.694C232.765 193.579 233.667 193.046 235.31 192.121L235.727 191.889L235.796 191.403C235.843 191.056 235.889 190.547 235.912 189.875L235.982 188.487C236.19 186.265 236.722 184.506 237.532 183.21C237.555 183.187 237.949 182.654 238.713 181.567C238.828 181.405 239.083 181.196 239.43 180.919C239.8 180.618 240.194 180.479 240.611 180.479C241.235 180.479 241.606 180.919 241.606 181.59C241.606 181.844 241.559 182.099 241.49 182.33C241.282 182.955 241.097 183.395 240.935 183.65L240.449 184.483L239.453 186.149L239.314 186.381C239.245 186.45 239.152 186.496 239.083 186.496C238.921 186.496 238.828 186.404 238.828 186.242C238.828 185.964 238.852 185.802 238.921 185.733C238.99 185.663 239.106 185.501 239.245 185.247L239.847 184.321C240.101 183.927 240.31 183.557 240.495 183.21C240.726 182.77 240.865 182.377 240.935 181.983C240.958 181.798 240.981 181.636 240.981 181.52C240.981 180.988 240.263 181.081 239.963 181.289C239.662 181.497 239.43 181.682 239.268 181.867C238.99 182.168 238.713 182.516 238.458 182.886C237.741 183.927 237.208 185.339 236.838 187.144C236.676 187.931 236.583 188.95 236.514 190.223L236.445 191.565C236.537 191.496 236.722 191.449 236.792 191.426C237.463 191.079 238.99 190.362 241.397 189.251C242.115 188.903 242.67 188.579 243.018 188.279C243.272 188.024 243.897 187.26 243.92 187.237C243.99 187.191 244.059 187.168 244.129 187.168C244.198 187.168 244.267 187.168 244.291 187.191C244.453 187.283 244.499 187.399 244.476 187.561C244.453 187.63 244.337 187.816 244.314 187.839C244.267 187.931 244.105 188.117 243.805 188.417C243.18 189.042 242.462 189.551 241.606 189.945L237.417 191.935L236.375 192.421L236.144 193.486C235.82 194.805 235.403 195.824 234.871 196.518C233.922 197.745 232.765 198.647 231.399 199.18C230.913 199.365 230.52 199.457 230.172 199.457ZM230.381 198.763C230.913 198.647 231.306 198.508 231.584 198.393C233.737 197.374 235.056 195.685 235.542 193.324L235.658 192.745L234.894 193.139L233.575 193.972C232.903 194.389 232.348 194.759 231.931 195.06C231.492 195.384 231.098 195.731 230.751 196.125C230.358 196.564 230.057 196.911 229.895 197.166C229.802 197.328 229.663 197.721 229.571 197.883C229.524 197.953 229.501 198.115 229.501 198.346C229.501 198.508 229.594 198.647 229.779 198.717C229.987 198.786 230.172 198.809 230.381 198.763ZM247.994 192.977C247.739 192.907 247.554 192.769 247.415 192.537C247.322 192.375 247.253 192.144 247.184 191.82C247.16 191.704 247.16 191.565 247.16 191.357C247.16 190.871 247.23 190.362 247.346 189.829C247.646 188.695 247.855 187.954 248.017 187.63C248.086 187.515 248.109 187.422 248.133 187.33L248.086 187.283L247.693 187.63C247.392 187.862 246.998 188.232 246.466 188.718C245.957 189.204 245.656 189.505 245.563 189.575C245.124 189.968 244.661 190.292 244.221 190.524C243.943 190.662 243.712 190.732 243.504 190.732C243.064 190.732 242.856 190.524 242.856 190.084V189.945C242.856 189.783 242.856 189.69 242.879 189.621C242.948 189.366 242.994 189.181 243.041 189.065C243.712 187.376 244.314 186.103 244.869 185.247L245.471 184.437C245.587 184.275 245.772 184.112 245.98 183.95C246.165 183.858 246.304 183.812 246.42 183.812C246.767 183.812 246.975 184.02 246.975 184.367C246.975 184.506 246.906 184.714 246.767 184.992C246.466 185.571 246.212 186.01 246.026 186.265C245.911 186.427 245.61 186.774 245.54 186.959C245.517 187.052 245.401 187.144 245.239 187.237C245.216 187.26 245.124 187.306 244.915 187.376C244.383 188.348 244.013 189.158 243.805 189.806H243.828C243.851 189.829 243.851 189.829 243.874 189.829C243.92 189.829 244.013 189.783 244.129 189.713C244.707 189.32 245.332 188.788 246.026 188.163L248.827 185.478L249.961 184.39C250.054 184.298 250.123 184.228 250.169 184.205C250.239 184.159 250.308 184.136 250.378 184.136C250.47 184.136 250.563 184.182 250.632 184.251C250.771 184.39 250.794 184.529 250.702 184.691L250.563 184.876C249.66 185.779 248.919 187.121 248.341 188.903C248.133 189.505 247.994 190.176 247.901 190.894C247.878 191.102 247.855 191.287 247.855 191.403C247.855 191.658 247.878 191.866 247.947 192.005C248.04 192.213 248.156 192.306 248.271 192.306C248.341 192.306 248.41 192.329 248.503 192.352C248.619 192.398 248.688 192.491 248.688 192.607C248.688 192.676 248.665 192.745 248.595 192.815C248.433 192.977 248.225 193.046 247.994 192.977ZM248.595 199.689C248.364 199.689 248.248 199.573 248.225 199.342V199.295C248.225 199.064 248.248 198.902 248.295 198.786C248.41 198.485 248.665 197.745 248.781 197.467C249.799 195.037 251.211 191.982 253.039 188.348L253.317 187.792C253.294 187.792 253.271 187.792 253.247 187.769L252.97 188.07C252.877 188.163 252.761 188.232 252.646 188.232C252.576 188.232 252.484 188.186 252.391 188.093C252.368 188.07 252.345 187.978 252.345 187.862C252.345 187.468 252.461 187.237 252.669 187.191C252.808 187.168 252.97 187.052 253.132 186.844L255.053 184.483C255.145 184.39 255.33 184.112 255.4 183.997C257.506 180.294 259.797 176.567 262.251 172.818L266.532 166.337C267.62 164.741 268.662 163.375 269.703 162.241C269.958 161.963 270.698 161.292 270.976 160.945C271.092 160.829 271.254 160.69 271.509 160.575C271.578 160.551 271.624 160.528 271.694 160.528C271.902 160.528 272.11 160.69 272.11 160.945C272.11 161.107 272.087 161.246 272.041 161.361L271.647 162.38C271.277 163.213 270.791 164.116 270.166 165.065C269.449 166.199 268.453 167.634 267.18 169.393L256.141 184.182C255.77 184.668 255.354 185.293 254.914 186.08C252.947 189.482 251.164 193.231 249.521 197.328C249.22 198.046 249.058 198.508 248.989 198.694C248.943 198.832 248.919 199.041 248.919 199.295V199.388C248.919 199.596 248.827 199.689 248.619 199.689H248.595ZM258.594 179.784L259.172 179.113C260.237 177.794 261.695 175.85 263.524 173.304C265.352 170.758 266.532 169.138 267.042 168.467C268.014 167.171 268.87 165.944 269.588 164.764L270.374 163.514C270.56 163.167 270.86 162.658 271.022 162.218L271.231 161.709C271.138 161.732 271.069 161.755 270.999 161.824L270.143 162.727C269.24 163.722 268.199 165.088 267.018 166.824L261.603 174.97L260.399 176.915C259.844 177.817 259.404 178.488 259.08 178.974L258.594 179.784ZM293.959 164.741C294.167 164.764 294.26 164.879 294.26 165.065V165.088C294.26 165.25 294.167 165.365 294.005 165.435L293.727 165.527C293.288 165.689 292.639 165.759 291.806 165.759C291.066 165.759 291.135 165.736 290.904 165.296H290.487C289.793 165.296 288.751 165.319 287.363 165.342L277.434 165.574C276.647 165.574 275.165 165.643 274.378 165.643H274.054L273.869 165.875C273.337 166.662 271.393 169.416 268.037 174.114C267.805 174.438 267.435 174.994 266.926 175.804C266.44 176.591 266.023 177.192 265.722 177.586C265.537 177.84 265.236 178.303 264.843 179.021C264.496 179.669 263.616 181.196 262.228 183.626C260.862 186.057 259.751 188.047 258.918 189.621C258.085 191.195 257.298 192.792 256.557 194.389C256.349 194.875 255.84 195.893 255.076 197.444C254.289 198.994 253.71 200.221 253.363 201.101L252.947 202.142C252.9 202.281 252.808 202.35 252.669 202.35C252.484 202.35 252.391 202.258 252.391 202.073C252.391 201.957 252.437 201.772 252.53 201.563L253.317 199.874C255.446 195.291 257.089 191.866 258.27 189.621C259.057 188.117 261.001 184.645 264.079 179.183L264.959 177.586C265.213 177.1 265.491 176.591 265.838 176.081C266.347 175.318 267.157 173.998 268.291 172.124L271.856 166.175C271.879 166.106 272.064 165.898 272.157 165.736C272.041 165.736 271.948 165.689 271.925 165.689L268.569 165.782C268.291 165.782 267.875 165.805 267.342 165.828L266.139 165.898L263.084 166.013C262.829 166.013 262.39 166.037 261.765 166.083C261.163 166.129 260.7 166.152 260.376 166.152C260.191 166.152 259.682 166.199 259.473 166.199C259.057 166.199 258.432 166.222 257.576 166.245C256.719 166.268 256.094 166.268 255.655 166.268C255.354 166.268 255.03 166.245 254.729 166.199C254.405 166.129 254.243 165.99 254.243 165.736V165.62C254.243 165.412 254.358 165.25 254.59 165.157C254.891 165.041 255.145 164.995 255.4 164.995C255.655 164.995 256.187 165.065 256.395 165.065C256.488 165.065 256.557 165.088 256.58 165.111C256.673 165.203 256.904 165.25 257.251 165.25L261.834 165.111C261.904 165.111 262.042 165.088 262.112 165.088C263.246 165.088 264.912 165.065 267.157 164.995C269.402 164.926 271.069 164.879 272.203 164.879H272.689C272.758 164.81 272.851 164.648 272.967 164.393C273.267 163.768 273.8 162.958 274.54 161.917C275.304 160.875 275.79 160.181 276.022 159.811C276.137 159.649 276.299 159.394 276.554 159.07C276.809 158.746 276.971 158.515 277.063 158.376C277.133 158.283 277.318 158.098 277.387 158.029C277.41 157.959 277.48 157.913 277.596 157.843C277.688 157.797 277.758 157.774 277.827 157.774C277.896 157.774 277.989 157.797 278.058 157.867C278.151 157.936 278.197 158.029 278.197 158.191C278.197 158.329 278.151 158.492 278.082 158.7C278.012 158.908 277.873 159.186 277.688 159.533C277.364 160.112 276.878 160.945 276.23 162.033L274.864 164.37L274.633 164.787C274.656 164.856 274.726 164.879 274.841 164.879L278.475 164.81H279.517C280.003 164.81 280.35 164.81 280.581 164.787L284.678 164.717C285.164 164.694 285.881 164.694 286.784 164.671L289.284 164.602C290.047 164.579 290.742 164.579 291.413 164.579C292.547 164.579 293.218 164.602 293.426 164.625C293.542 164.625 293.843 164.717 293.959 164.741ZM273.985 164.532C274.147 164.231 274.517 163.63 275.096 162.727C275.675 161.824 276.114 161.107 276.392 160.598V160.551L276.415 160.528V160.459H276.369V160.505L276.392 160.598H276.276L276.161 160.783L273.568 164.717L273.499 164.903L273.8 164.81L273.985 164.532ZM273.059 165.898L273.152 165.689H272.967C272.92 165.736 272.874 165.828 272.805 165.944L271.809 167.472L271.856 167.495H271.902C271.971 167.495 272.018 167.448 272.041 167.379L273.059 165.898ZM271.277 209.201C270.976 209.201 270.837 209.062 270.837 208.761V208.623C270.837 208.322 270.86 208.113 270.884 208.044C270.976 207.789 271.231 206.956 271.393 206.586C271.786 205.683 272.388 204.457 273.221 202.906L278.105 194.204L286.46 179.484L287.247 178.095C287.339 177.956 287.363 177.863 287.316 177.794L286.992 178.187C284.331 181.405 282.271 183.765 280.813 185.27C278.799 187.376 277.04 188.996 275.536 190.107C274.54 190.824 273.615 191.426 272.735 191.912C272.041 192.283 271.323 192.56 270.56 192.745C270.212 192.815 269.912 192.861 269.611 192.861C268.546 192.861 267.782 192.421 267.319 191.565C267.088 191.125 266.972 190.616 266.972 190.061C266.972 189.783 267.088 189.135 267.088 188.95L267.111 188.672L266.787 189.019C266.556 189.274 266.232 189.621 265.838 190.107L265.005 191.079C264.611 191.542 264.195 191.912 263.755 192.213C263.338 192.514 262.968 192.653 262.644 192.653C262.158 192.653 261.88 192.375 261.857 191.796V191.773C261.857 191.519 261.88 191.357 261.904 191.241C261.927 191.125 262.042 190.871 262.066 190.801C262.552 189.297 263.431 187.954 264.658 186.774C265.19 186.265 265.653 185.918 266.023 185.756C266.417 185.571 266.787 185.478 267.088 185.478C267.481 185.478 267.805 185.617 268.014 185.895C268.153 186.057 268.291 186.172 268.453 186.242C268.569 186.288 268.639 186.427 268.639 186.658C268.639 186.705 268.615 186.774 268.592 186.867C268.569 186.982 268.546 187.098 268.546 187.168C268.546 187.399 268.592 187.561 268.662 187.654C268.731 187.723 268.754 187.816 268.754 187.931C268.754 188.14 268.685 188.302 268.546 188.394C268.477 188.441 268.384 188.464 268.291 188.464C268.222 188.464 268.06 188.394 267.991 188.394C267.782 188.973 267.69 189.505 267.69 189.991C267.69 191.31 268.384 192.097 269.564 192.097C269.773 192.097 270.05 192.074 270.421 192.005C270.814 191.935 271.37 191.75 272.11 191.403C272.805 191.079 273.545 190.639 274.355 190.061C275.767 189.065 277.271 187.792 278.822 186.288C280.489 184.691 282.363 182.654 284.469 180.201C286.529 177.817 288.543 175.248 290.51 172.517C290.672 172.309 290.88 171.985 291.135 171.545L291.667 170.666C291.598 170.596 291.482 170.55 291.32 170.55L279.424 170.966C276.647 171.059 274.564 171.128 273.152 171.198L271.231 171.337C270.421 171.406 269.842 171.429 269.518 171.452C269.356 171.476 269.055 171.429 268.639 171.337C268.245 171.244 267.921 171.198 267.667 171.221C267.412 171.221 267.296 171.337 267.296 171.545C267.296 171.568 267.273 171.568 267.25 171.568C267.065 171.568 266.926 171.545 266.856 171.522C266.602 171.406 266.463 171.29 266.417 171.175C266.394 171.128 266.417 171.105 266.486 171.105C266.509 171.105 266.509 171.082 266.509 171.059C266.509 170.897 266.602 170.758 266.787 170.666C266.903 170.596 266.995 170.573 267.111 170.55C267.736 170.434 268.5 170.272 269.449 170.11C269.865 170.041 270.282 170.017 270.675 170.064C270.93 170.087 271.161 170.179 271.37 170.342C271.462 170.411 271.601 170.457 271.763 170.457H272.018C273.152 170.457 274.795 170.411 276.947 170.342C279.123 170.249 280.72 170.203 281.738 170.203C283.752 170.179 286.784 170.11 290.788 169.948L292.107 169.902L292.408 169.439C292.639 169.092 293.079 168.421 293.704 167.402C294.329 166.384 294.838 165.597 295.209 165.065C295.81 164.162 296.389 163.398 296.944 162.773C297.199 162.496 297.384 162.287 297.523 162.171C297.592 162.102 297.824 161.986 297.893 161.917C297.963 161.847 298.055 161.824 298.171 161.824C298.24 161.824 298.31 161.871 298.426 161.94C298.588 162.056 298.634 162.241 298.564 162.449L298.379 162.912C298.194 163.282 298.009 163.583 297.824 163.838L296.065 166.245L294.977 167.61C294.398 168.351 293.959 168.93 293.681 169.346L293.38 169.786C293.45 169.809 293.612 169.832 293.82 169.832L309.697 169.161C310.09 169.138 310.646 169.138 311.387 169.138C311.641 169.138 312.035 169.161 312.544 169.231C313.076 169.3 313.446 169.323 313.701 169.323C313.863 169.323 314.025 169.369 314.164 169.485C314.326 169.601 314.395 169.717 314.395 169.879C314.395 169.994 314.326 170.133 314.21 170.249C314.141 170.318 314.025 170.388 313.909 170.434C313.886 170.457 313.817 170.457 313.724 170.457C313.562 170.457 313.446 170.365 313.377 170.156L313.308 169.971C312.544 169.902 312.081 169.855 311.942 169.855C310.924 169.855 309.396 169.879 307.359 169.902C305.971 169.925 304.582 169.971 303.193 170.041L296.551 170.342C294.746 170.411 293.658 170.457 293.264 170.457C292.963 170.457 292.732 170.596 292.547 170.851C291.505 172.309 290.765 173.35 290.371 174.021L285.303 182.678L277.04 197.05C275.281 200.036 274.008 202.327 273.244 203.878C272.619 205.105 272.18 206.054 271.902 206.702C271.717 207.141 271.601 207.465 271.578 207.72L271.624 207.766C272.18 207.951 272.064 208.183 271.971 208.368C271.902 208.53 271.694 208.877 271.624 208.993C271.555 209.132 271.439 209.201 271.277 209.201ZM262.598 191.958C262.945 191.889 263.223 191.75 263.431 191.565C263.871 191.172 264.311 190.755 264.704 190.362C265.931 189.135 266.903 187.954 267.574 186.867L267.69 186.682C267.505 186.334 267.319 186.149 267.111 186.149C267.088 186.149 266.995 186.172 266.833 186.196C266.579 186.265 266.37 186.334 266.208 186.427C265.908 186.612 265.537 186.89 265.121 187.283C264.241 188.093 263.431 189.343 262.714 190.986C262.644 191.102 262.598 191.334 262.528 191.681V191.704C262.528 191.773 262.598 191.935 262.598 191.958ZM290.418 182.631C290.51 182.261 290.626 181.983 290.765 181.775C290.88 181.636 291.019 181.543 291.181 181.52C291.482 181.497 291.714 181.821 291.598 182.076C291.459 182.4 291.251 182.701 290.95 183.002C290.695 183.256 290.325 183.002 290.418 182.631ZM288.774 190.686C288.427 190.686 288.126 190.639 287.895 190.57C287.177 190.338 286.83 189.852 286.83 189.089C286.83 188.857 286.9 188.533 287.015 188.14C287.085 187.954 287.177 187.7 287.339 187.353C287.455 187.075 287.687 186.682 288.034 186.196L288.589 185.362C288.635 185.293 288.728 185.177 288.844 185.061C288.913 184.992 289.006 184.946 289.121 184.946C289.191 184.946 289.283 185.015 289.307 185.015C289.399 185.038 289.446 185.108 289.446 185.247C289.446 185.316 289.422 185.385 289.376 185.478L289.307 185.594L288.774 186.45L288.728 186.52C288.427 186.797 288.103 187.33 287.779 188.14C287.64 188.487 287.571 188.811 287.571 189.112C287.571 189.644 287.825 189.922 288.311 189.922C288.404 189.922 288.682 189.945 288.797 189.945C289.191 189.945 289.538 189.899 289.862 189.783C290.394 189.621 290.904 189.436 291.367 189.227C291.783 189.042 292.362 188.765 293.079 188.371C293.82 187.978 294.283 187.723 294.445 187.654C294.676 187.538 294.838 187.422 294.954 187.26C295.046 187.144 295.139 187.098 295.232 187.098C295.255 187.098 295.347 187.121 295.463 187.191C295.556 187.237 295.602 187.353 295.602 187.515C295.602 187.63 295.602 187.677 295.579 187.7C295.509 187.816 295.463 187.885 295.394 187.908L295.046 188.163L293.727 188.88C293.149 189.181 292.639 189.459 292.153 189.69C291.691 189.922 291.251 190.107 290.811 190.246C290.186 190.454 289.77 190.57 289.538 190.593L288.774 190.686ZM295.787 191.334C295.718 191.334 295.625 191.31 295.463 191.287C294.746 191.125 294.375 190.593 294.375 189.69C294.375 189.505 294.398 189.251 294.468 188.903C294.815 186.982 295.833 185.385 297.5 184.136C297.916 183.812 298.426 183.557 299.004 183.395C299.166 183.349 299.328 183.326 299.49 183.326C300.3 183.326 300.763 183.788 300.763 184.46C300.763 184.83 300.717 185.108 300.624 185.316C300.439 185.756 300.3 186.057 300.185 186.242C299.351 187.654 298.287 188.95 297.014 190.084C296.852 190.246 296.343 190.616 296.181 190.732L296.296 190.848C296.366 190.917 296.389 190.963 296.389 191.033C296.389 191.148 296.319 191.218 296.204 191.264C296.088 191.31 295.949 191.334 295.787 191.334ZM295.741 190.084L295.857 190.037C295.926 190.014 296.111 189.875 296.458 189.621C297.639 188.741 298.68 187.445 299.629 185.733C299.814 185.385 299.93 185.131 299.953 184.946C299.999 184.668 300.023 184.529 300.023 184.506V184.437C300.023 184.182 299.884 184.066 299.629 184.066C299.421 184.066 299.166 184.112 298.865 184.228C298.634 184.321 298.31 184.506 297.916 184.784C297.384 185.131 296.991 185.524 296.597 186.172L296.157 186.89C296.065 187.052 295.903 187.353 295.695 187.816L295.301 188.626C295.301 188.672 295.278 188.741 295.278 188.834L295.764 188.047C295.88 187.862 296.065 187.607 296.366 187.283C296.667 186.959 296.852 186.705 296.967 186.52C297.129 186.242 297.454 186.172 297.616 186.172C297.87 186.172 298.009 186.288 298.009 186.543C298.009 186.751 297.916 186.936 297.754 187.098L297.083 187.792C296.898 187.978 296.782 188.093 296.759 188.163C296.458 188.579 296.111 189.135 295.764 189.852C295.718 189.968 295.718 190.061 295.741 190.084ZM300.601 193.463C300.393 193.463 300.347 193.185 300.161 193C300.138 192.977 300.138 192.977 300.138 192.954C300.138 192.838 300.161 192.722 300.208 192.63C300.3 192.468 300.462 191.912 300.578 191.704C301.203 190.524 301.596 189.829 301.735 189.598C302.036 189.112 303.379 187.168 305.716 183.765C305.994 183.372 306.225 183.071 306.41 182.886L306.827 182.585C306.896 182.539 306.966 182.516 307.035 182.516C307.29 182.516 307.475 182.724 307.475 182.978C307.475 183.187 307.383 183.418 307.221 183.673L306.572 184.691L305.762 185.941L305.438 186.358C305.253 186.612 305.114 186.797 305.045 186.936L304.952 187.098C304.86 187.237 304.721 187.306 304.559 187.306C304.513 187.306 304.443 187.283 304.351 187.26C303.309 188.672 302.244 190.292 301.157 192.121C301.041 192.306 300.995 192.445 301.018 192.537C301.11 192.491 301.249 192.398 301.434 192.259C301.782 192.005 302.244 191.588 302.823 191.056C303.402 190.5 303.749 190.176 303.841 190.107C304.212 189.783 304.744 189.297 305.415 188.649C306.086 188.001 306.596 187.538 306.92 187.237C307.035 187.121 307.267 186.959 307.591 186.705C307.915 186.45 308.146 186.242 308.308 186.08C308.47 185.918 308.864 185.686 308.956 185.617C309.026 185.547 309.28 185.524 309.35 185.455C309.373 185.432 309.396 185.432 309.466 185.432C309.766 185.432 309.905 185.571 309.905 185.871C309.905 185.987 309.882 186.149 309.813 186.358C309.79 186.473 309.72 186.682 309.604 187.006C309.489 187.306 309.419 187.561 309.373 187.723C309.28 188.07 309.165 188.603 309.003 189.32C308.956 189.528 308.933 189.737 308.933 189.945C308.933 190.94 309.327 191.426 310.114 191.426C310.461 191.426 310.785 191.334 311.132 191.172C311.572 190.963 311.988 190.662 312.405 190.292C313.516 189.297 314.534 188.348 315.437 187.445L315.668 187.214C315.738 187.168 315.807 187.144 315.853 187.144C315.969 187.144 316.039 187.168 316.085 187.214C316.224 187.353 316.247 187.492 316.177 187.607L315.877 188.024C314.881 189.019 313.932 189.899 313.076 190.639C312.868 190.824 312.289 191.241 312.127 191.357C311.826 191.611 311.456 191.796 311.063 191.935C310.669 192.074 310.345 192.144 310.09 192.144C309.928 192.144 309.836 192.144 309.766 192.121C308.864 191.912 308.378 191.38 308.285 190.57C308.262 190.431 308.262 190.246 308.262 189.991C308.262 189.69 308.285 189.389 308.331 189.112C308.378 188.811 308.563 188.093 308.91 186.959L309.049 186.473L308.979 186.404L308.493 186.797C308.123 187.098 306.896 188.209 304.79 190.153C303.425 191.403 302.476 192.259 301.92 192.699C301.62 192.954 301.365 193.116 301.203 193.231C301.064 193.324 300.925 193.393 300.786 193.44C300.74 193.463 300.671 193.463 300.601 193.463Z" fill="#4B3F17"/>
</svg>
